<?xml version="1.0" encoding="UTF-8" standalone="no"?>
<!-- Created with Inkscape (http://www.inkscape.org/) -->

<svg
   xmlns:dc="http://purl.org/dc/elements/1.1/"
   xmlns:cc="http://creativecommons.org/ns#"
   xmlns:rdf="http://www.w3.org/1999/02/22-rdf-syntax-ns#"
   xmlns:svg="http://www.w3.org/2000/svg"
   xmlns="http://www.w3.org/2000/svg"
   xmlns:sodipodi="http://sodipodi.sourceforge.net/DTD/sodipodi-0.dtd"
   xmlns:inkscape="http://www.inkscape.org/namespaces/inkscape"
   width="46"
   height="46"
   viewBox="0 0 12.170833 12.170834"
   version="1.1"
   id="svg8"
   inkscape:version="0.92.4 (5da689c313, 2019-01-14)"
   sodipodi:docname="blademaster.svg">
  <defs
     id="defs2" />
  <sodipodi:namedview
     id="base"
     pagecolor="#ffffff"
     bordercolor="#666666"
     borderopacity="1.0"
     inkscape:pageopacity="0.0"
     inkscape:pageshadow="2"
     inkscape:zoom="1.979899"
     inkscape:cx="33.802051"
     inkscape:cy="37.026135"
     inkscape:document-units="mm"
     inkscape:current-layer="layer1"
     showgrid="false"
     units="px"
     inkscape:window-width="624"
     inkscape:window-height="802"
     inkscape:window-x="-7"
     inkscape:window-y="0"
     inkscape:window-maximized="0" />
  <metadata
     id="metadata5">
    <rdf:RDF>
      <cc:Work
         rdf:about="">
        <dc:format>image/svg+xml</dc:format>
        <dc:type
           rdf:resource="http://purl.org/dc/dcmitype/StillImage" />
        <dc:title></dc:title>
      </cc:Work>
    </rdf:RDF>
  </metadata>
  <g
     inkscape:label="Camada 1"
     inkscape:groupmode="layer"
     id="layer1"
     transform="translate(0,-284.82915)">
    <path
       style="display:inline;fill:#000000;stroke-width:0.26458338"
       d="m 5.6368084,295.66545 c -0.27039,-0.38605 -0.32041,-0.67355 -0.14729,-0.84667 0.14417,-0.14417 0.26213,-0.5955 0.26213,-1.00296 0,-0.80454 -0.31425,-0.91005 -1.43798,-0.4828 -0.9215301,0.35036 -0.9341901,-0.34301 -0.0172,-0.94382 0.61975,-0.40608 0.66199,-0.57746 0.66982,-2.71808 0.007,-2.04589 0.0766,-2.36227 0.66146,-3.02704 l 0.6530999,-0.74235 0.6530901,0.74235 c 0.58484,0.66477 0.6539799,0.98115 0.6614599,3.02704 0.008,2.14062 0.0501,2.312 0.66982,2.71808 0.9169601,0.60081 0.9043101,1.29418 -0.017201,0.94382 -1.1237402,-0.42725 -1.43799,-0.32174 -1.43799,0.4828 0,0.40746 0.11796,0.85879 0.2621298,1.00296 0.27974,0.27974 -0.3568898,1.4312 -0.7912899,1.4312 -0.12902,0 -0.41882,-0.26304 -0.64401,-0.58453 z"
       id="path4805"
       inkscape:connector-curvature="0" />
  </g>
</svg>
