<?xml version="1.0" encoding="UTF-8" standalone="no"?>
<!-- Created with Inkscape (http://www.inkscape.org/) -->

<svg
   xmlns:dc="http://purl.org/dc/elements/1.1/"
   xmlns:cc="http://creativecommons.org/ns#"
   xmlns:rdf="http://www.w3.org/1999/02/22-rdf-syntax-ns#"
   xmlns:svg="http://www.w3.org/2000/svg"
   xmlns="http://www.w3.org/2000/svg"
   xmlns:sodipodi="http://sodipodi.sourceforge.net/DTD/sodipodi-0.dtd"
   xmlns:inkscape="http://www.inkscape.org/namespaces/inkscape"
   width="46"
   height="46"
   viewBox="0 0 12.170833 12.170834"
   version="1.1"
   id="svg8"
   inkscape:version="0.92.4 (5da689c313, 2019-01-14)"
   sodipodi:docname="brawler.svg">
  <defs
     id="defs2" />
  <sodipodi:namedview
     id="base"
     pagecolor="#ffffff"
     bordercolor="#666666"
     borderopacity="1.0"
     inkscape:pageopacity="0.0"
     inkscape:pageshadow="2"
     inkscape:zoom="1.979899"
     inkscape:cx="33.802051"
     inkscape:cy="37.026135"
     inkscape:document-units="mm"
     inkscape:current-layer="layer1"
     showgrid="false"
     units="px"
     inkscape:window-width="624"
     inkscape:window-height="802"
     inkscape:window-x="-7"
     inkscape:window-y="0"
     inkscape:window-maximized="0" />
  <metadata
     id="metadata5">
    <rdf:RDF>
      <cc:Work
         rdf:about="">
        <dc:format>image/svg+xml</dc:format>
        <dc:type
           rdf:resource="http://purl.org/dc/dcmitype/StillImage" />
        <dc:title></dc:title>
      </cc:Work>
    </rdf:RDF>
  </metadata>
  <g
     inkscape:label="Camada 1"
     inkscape:groupmode="layer"
     id="layer1"
     transform="translate(0,-284.82915)">
    <path
       style="display:inline;fill:#000000;stroke-width:0.26458338"
       d="m 8.3641396,295.92125 c -1.3747401,-0.28667 -2.50799,-1.02016 -2.14185,-1.3863 0.0647,-0.0647 1.0159799,-0.0335 2.1139301,0.0694 1.8674103,0.17499 1.9962803,0.2273 1.9962803,0.81033 0,0.84471 -0.15524,0.88466 -1.9683604,0.50656 z m -6.2398611,-3.17548 c -0.14169,-0.37268 -0.331295,-1.30447 -0.421344,-2.07064 l -0.163726,-1.39305 2.938821,-1.62573 2.93882,-1.62572 1.66917,0.51555 1.6691705,0.51555 -0.0856,1.79175 c -0.0471,0.98546 -0.15159,2.42346 -0.23222,3.19554 l -0.1466,1.40379 -0.9601402,-0.0809 c -0.8941502,-0.0753 -0.9818601,-0.16271 -1.2760601,-1.2715 l -0.3159299,-1.19062 -0.026001,1.27434 c -0.025,1.22433 -0.0541,1.27106 -0.7424,1.19063 -0.60257,-0.0704 -0.76664,-0.27295 -1.0323602,-1.27435 l -0.31593,-1.19062 -0.026001,1.25677 c -0.025101,1.21312 -0.0534,1.25677 -0.8166002,1.25677 -0.7185199,0 -0.8061399,-0.097 -0.9607919,-1.0642 -0.235839,-1.47486 -0.594034,-1.57615 -0.430088,-0.12162 0.121639,1.07918 0.08239,1.18582 -0.436466,1.18582 -0.368301,0 -0.661322,-0.23987 -0.827745,-0.67759 z"
       id="path4799"
       inkscape:connector-curvature="0" />
  </g>
</svg>
