<?xml version="1.0" encoding="UTF-8" standalone="no"?>
<!-- Created with Inkscape (http://www.inkscape.org/) -->

<svg
   xmlns:dc="http://purl.org/dc/elements/1.1/"
   xmlns:cc="http://creativecommons.org/ns#"
   xmlns:rdf="http://www.w3.org/1999/02/22-rdf-syntax-ns#"
   xmlns:svg="http://www.w3.org/2000/svg"
   xmlns="http://www.w3.org/2000/svg"
   xmlns:sodipodi="http://sodipodi.sourceforge.net/DTD/sodipodi-0.dtd"
   xmlns:inkscape="http://www.inkscape.org/namespaces/inkscape"
   width="46"
   height="46"
   viewBox="0 0 12.170833 12.170834"
   version="1.1"
   id="svg8"
   inkscape:version="0.92.4 (5da689c313, 2019-01-14)"
   sodipodi:docname="demon.svg">
  <defs
     id="defs2" />
  <sodipodi:namedview
     id="base"
     pagecolor="#ffffff"
     bordercolor="#666666"
     borderopacity="1.0"
     inkscape:pageopacity="0.0"
     inkscape:pageshadow="2"
     inkscape:zoom="1.979899"
     inkscape:cx="96.684047"
     inkscape:cy="37.026135"
     inkscape:document-units="mm"
     inkscape:current-layer="layer1"
     showgrid="false"
     units="px"
     inkscape:window-width="624"
     inkscape:window-height="802"
     inkscape:window-x="-7"
     inkscape:window-y="0"
     inkscape:window-maximized="0" />
  <metadata
     id="metadata5">
    <rdf:RDF>
      <cc:Work
         rdf:about="">
        <dc:format>image/svg+xml</dc:format>
        <dc:type
           rdf:resource="http://purl.org/dc/dcmitype/StillImage" />
        <dc:title></dc:title>
      </cc:Work>
    </rdf:RDF>
  </metadata>
  <g
     inkscape:label="Camada 1"
     inkscape:groupmode="layer"
     id="layer1"
     transform="translate(0,-284.82915)">
    <path
       style="display:inline;fill:#000000;stroke-width:0.26458338"
       d="M 2.363423,294.77309 C 1.401435,294.24226 1.1,293.60883 1.1,292.11818 c 0,-1.76694 0.481671,-3.15043 1.492923,-4.28811 l 0.875992,-0.9855 -0.290397,0.87739 c -0.159719,0.48256 -0.232573,1.47918 -0.161898,2.21471 0.102319,1.06485 0.29707,1.49487 0.9558361,2.11054 0.9271,0.86645 1.3071819,1.94279 0.9101349,2.57737 -0.3532201,0.56453 -1.628942,0.63974 -2.519168,0.14851 z m 5.1394942,0.0883 c -0.6597642,-0.65976 -0.2523202,-1.95461 0.9369398,-2.97757 0.789678,-0.67925 1.105528,-2.77007 0.626184,-4.14512 l -0.300006,-0.8606 0.662559,0.62244 c 1.076703,1.01151 1.725574,2.64338 1.725574,4.3397 0,0.83674 -0.122592,1.75042 -0.272427,2.03039 -0.563902,1.05366 -2.69193,1.67765 -3.3788238,0.99076 z"
       id="path3826"
       inkscape:connector-curvature="0" />
  </g>
</svg>
