<?xml version="1.0" encoding="UTF-8" standalone="no"?>
<!-- Created with Inkscape (http://www.inkscape.org/) -->

<svg
   xmlns:dc="http://purl.org/dc/elements/1.1/"
   xmlns:cc="http://creativecommons.org/ns#"
   xmlns:rdf="http://www.w3.org/1999/02/22-rdf-syntax-ns#"
   xmlns:svg="http://www.w3.org/2000/svg"
   xmlns="http://www.w3.org/2000/svg"
   xmlns:sodipodi="http://sodipodi.sourceforge.net/DTD/sodipodi-0.dtd"
   xmlns:inkscape="http://www.inkscape.org/namespaces/inkscape"
   width="46"
   height="46"
   viewBox="0 0 12.170833 12.170834"
   version="1.1"
   id="svg8"
   inkscape:version="0.92.4 (5da689c313, 2019-01-14)"
   sodipodi:docname="dragon.svg">
  <defs
     id="defs2" />
  <sodipodi:namedview
     id="base"
     pagecolor="#ffffff"
     bordercolor="#666666"
     borderopacity="1.0"
     inkscape:pageopacity="0.0"
     inkscape:pageshadow="2"
     inkscape:zoom="1.979899"
     inkscape:cx="33.802051"
     inkscape:cy="37.026135"
     inkscape:document-units="mm"
     inkscape:current-layer="layer1"
     showgrid="false"
     units="px"
     inkscape:window-width="624"
     inkscape:window-height="802"
     inkscape:window-x="-7"
     inkscape:window-y="0"
     inkscape:window-maximized="0" />
  <metadata
     id="metadata5">
    <rdf:RDF>
      <cc:Work
         rdf:about="">
        <dc:format>image/svg+xml</dc:format>
        <dc:type
           rdf:resource="http://purl.org/dc/dcmitype/StillImage" />
        <dc:title></dc:title>
      </cc:Work>
    </rdf:RDF>
  </metadata>
  <g
     inkscape:label="Camada 1"
     inkscape:groupmode="layer"
     id="layer1"
     transform="translate(0,-284.82915)">
    <path
       style="display:inline;fill:#000000;stroke-width:0.26458338"
       d="m 4.2758952,294.89987 c -1.066776,-0.52887 -1.365673,-1.11103 -0.5704369,-1.11103 0.3031688,0 0.551216,-0.11906 0.551216,-0.26458 0,-0.14552 0.1785929,-0.26458 0.396875,-0.26458 0.218281,0 0.396875,-0.11907 0.396875,-0.26459 0,-0.14552 0.245151,-0.26458 0.544781,-0.26458 0.2996301,0 0.4774819,-0.10889 0.3952269,-0.24198 -0.08226,-0.1331 1.51e-5,-0.29199 0.1828221,-0.3531 0.182808,-0.0611 0.005,-0.17383 -0.3952261,-0.25049 -0.400182,-0.0767 -0.7276039,-0.0298 -0.7276039,0.10413 0,0.13393 -0.1199761,0.16935 -0.266613,0.0787 -0.3073511,-0.18996 -1.0563039,0.4742 -1.0563039,0.9367 0,0.17149 -0.1785941,0.24326 -0.3968752,0.1595 -0.269952,-0.10359 -0.396875,0.0143 -0.396875,0.36856 0,0.77637 -0.493204,0.62921 -0.6929,-0.20674 -0.0956,-0.40018 -0.274867,-0.85694 -0.398375,-1.01503 -0.123507,-0.15808 -0.405008,-0.79887 -0.625558,-1.42398 l -0.40099902,-1.13655 1.06244502,0.14251 c 0.868361,0.11647 1.325821,-0.0101 2.5042071,-0.69269 0.7929679,-0.45936 1.4462239,-0.96327 1.4516791,-1.1198 0.010099,-0.28998 0.9098719,-1.19069 1.5596179,-1.56125 0.2726529,-0.1555 0.3161221,-0.0695 0.180608,0.35751 -0.2071981,0.65283 -0.00201,0.68991 0.9155255,0.16543 1.129617,-0.64575 1.491848,-0.46987 0.71096,0.34521 -0.88087,0.91942 -0.889369,1.11 -0.0495,1.11 0.774884,0 0.822204,0.17758 0.223576,0.83906 -0.391119,0.43218 -0.393287,0.48385 -0.0203,0.48385 0.22967,0 0.8014652,0.32302 1.2706562,0.71782 l 0.853072,0.71781 -0.855879,0.22178 c -0.6699222,0.1736 -0.8139852,0.31944 -0.6630622,0.67125 0.1060522,0.24721 0.2505022,0.78696 0.3210052,1.19945 l 0.128185,0.74997 -1.1096682,-0.56611 c -1.423802,-0.72637 -2.5956975,-0.4165 -3.1902925,0.84356 -0.4882589,1.03472 -0.6879899,1.09185 -1.8328621,0.52425 z"
       id="path4793"
       inkscape:connector-curvature="0" />
  </g>
</svg>
