<?xml version="1.0" encoding="UTF-8" standalone="no"?>
<!-- Created with Inkscape (http://www.inkscape.org/) -->

<svg
   xmlns:dc="http://purl.org/dc/elements/1.1/"
   xmlns:cc="http://creativecommons.org/ns#"
   xmlns:rdf="http://www.w3.org/1999/02/22-rdf-syntax-ns#"
   xmlns:svg="http://www.w3.org/2000/svg"
   xmlns="http://www.w3.org/2000/svg"
   xmlns:sodipodi="http://sodipodi.sourceforge.net/DTD/sodipodi-0.dtd"
   xmlns:inkscape="http://www.inkscape.org/namespaces/inkscape"
   width="46"
   height="46"
   viewBox="0 0 12.170833 12.170834"
   version="1.1"
   id="svg8"
   inkscape:version="0.92.4 (5da689c313, 2019-01-14)"
   sodipodi:docname="elementalist.svg">
  <defs
     id="defs2" />
  <sodipodi:namedview
     id="base"
     pagecolor="#ffffff"
     bordercolor="#666666"
     borderopacity="1.0"
     inkscape:pageopacity="0.0"
     inkscape:pageshadow="2"
     inkscape:zoom="1.979899"
     inkscape:cx="33.802051"
     inkscape:cy="37.026135"
     inkscape:document-units="mm"
     inkscape:current-layer="layer1"
     showgrid="false"
     units="px"
     inkscape:window-width="624"
     inkscape:window-height="802"
     inkscape:window-x="-7"
     inkscape:window-y="0"
     inkscape:window-maximized="0" />
  <metadata
     id="metadata5">
    <rdf:RDF>
      <cc:Work
         rdf:about="">
        <dc:format>image/svg+xml</dc:format>
        <dc:type
           rdf:resource="http://purl.org/dc/dcmitype/StillImage" />
        <dc:title></dc:title>
      </cc:Work>
    </rdf:RDF>
  </metadata>
  <g
     inkscape:label="Camada 1"
     inkscape:groupmode="layer"
     id="layer1"
     transform="translate(0,-284.82915)">
    <path
       style="display:inline;fill:#000000;stroke-width:0.26458338"
       d="m 4.3135211,295.68575 c -0.59955,-0.29951 -1.14121,-0.88238 -1.53633,-1.65323 -0.83494,-1.6289 -0.62357,-2.83185 0.88395,-5.03061 0.69138,-1.00838 1.1815501,-2.0237 1.1815501,-2.44739 0,-0.83407 0.2789298,-0.90025 1.2134599,-0.28792 0.8381402,0.54917 1.43237,1.67995 1.43237,2.72569 0,1.05686 0.39849,1.02984 0.78178,-0.053 l 0.3043801,-0.8599 0.64619,1.05834 c 0.3554101,0.58208 0.6634599,1.23692 0.6845599,1.4552 0.1903899,1.96941 0.1196199,2.60413 -0.3939198,3.53304 -1.00838,1.82398 -3.2953701,2.51025 -5.1979902,1.55978 z m 2.3986501,-1.39796 c 0.6186199,-0.33108 0.65313,-1.06653 0.1002001,-2.13577 l -0.4115602,-0.79588 -0.64677,0.95306 c -0.7241199,1.06705 -0.79292,1.47134 -0.32927,1.93498 0.38872,0.38872 0.6274501,0.39681 1.2874001,0.0436 z"
       id="path4803"
       inkscape:connector-curvature="0" />
  </g>
</svg>
