<?xml version="1.0" encoding="UTF-8" standalone="no"?>
<!-- Created with Inkscape (http://www.inkscape.org/) -->

<svg
   xmlns:dc="http://purl.org/dc/elements/1.1/"
   xmlns:cc="http://creativecommons.org/ns#"
   xmlns:rdf="http://www.w3.org/1999/02/22-rdf-syntax-ns#"
   xmlns:svg="http://www.w3.org/2000/svg"
   xmlns="http://www.w3.org/2000/svg"
   xmlns:sodipodi="http://sodipodi.sourceforge.net/DTD/sodipodi-0.dtd"
   xmlns:inkscape="http://www.inkscape.org/namespaces/inkscape"
   width="46"
   height="46"
   viewBox="0 0 12.170833 12.170834"
   version="1.1"
   id="svg8"
   inkscape:version="0.92.4 (5da689c313, 2019-01-14)"
   sodipodi:docname="exile.svg">
  <defs
     id="defs2">
    <pattern
       y="0"
       x="0"
       height="6"
       width="6"
       patternUnits="userSpaceOnUse"
       id="EMFhbasepattern" />
  </defs>
  <sodipodi:namedview
     id="base"
     pagecolor="#ffffff"
     bordercolor="#666666"
     borderopacity="1.0"
     inkscape:pageopacity="0.0"
     inkscape:pageshadow="2"
     inkscape:zoom="1.979899"
     inkscape:cx="33.802051"
     inkscape:cy="37.026135"
     inkscape:document-units="mm"
     inkscape:current-layer="layer1"
     showgrid="false"
     units="px"
     inkscape:window-width="624"
     inkscape:window-height="802"
     inkscape:window-x="-7"
     inkscape:window-y="0"
     inkscape:window-maximized="0" />
  <metadata
     id="metadata5">
    <rdf:RDF>
      <cc:Work
         rdf:about="">
        <dc:format>image/svg+xml</dc:format>
        <dc:type
           rdf:resource="http://purl.org/dc/dcmitype/StillImage" />
        <dc:title></dc:title>
      </cc:Work>
    </rdf:RDF>
  </metadata>
  <g
     inkscape:label="Camada 1"
     inkscape:groupmode="layer"
     id="layer1"
     transform="translate(0,-284.82915)">
    <path
       style="display:inline;fill:#000000;stroke-width:0.26458338"
       d="M 4.175,295.83697 C 2.1286501,294.95059 1,293.30086 1,291.19609 c 0,-2.89894 1.84355,-4.9698 4.6299801,-5.20088 2.6120701,-0.21661 4.9348209,1.52963 5.3378109,4.01296 l 0.15697,0.96729 -1.0625,-1.0625 c -0.9303307,-0.93033 -1.2129407,-1.0625 -2.2718009,-1.0625 -1.5862901,0 -2.44563,0.41859 -3.1288702,1.5241 -1.0855398,1.75645 -0.46091,4.20156 1.2944102,5.06692 0.4690499,0.23124 0.8555199,0.50974 0.8588298,0.61888 0.0103,0.33957 -1.6680198,0.19755 -2.6398299,-0.22339 z m 2.2175301,-2.63172 c -0.35476,-0.54144 -0.3821502,-0.80038 -0.1406801,-1.33035 0.1649,-0.36192 0.4797201,-0.72707 0.6995801,-0.81144 0.72424,-0.27792 1.7319501,0.16132 2.0024601,0.87281 0.6211701,1.63381 -1.6009703,2.73472 -2.5613601,1.26898 z"
       id="path4813"
       inkscape:connector-curvature="0" />
  </g>
</svg>
