<?xml version="1.0" encoding="UTF-8" standalone="no"?>
<!-- Created with Inkscape (http://www.inkscape.org/) -->

<svg
   xmlns:dc="http://purl.org/dc/elements/1.1/"
   xmlns:cc="http://creativecommons.org/ns#"
   xmlns:rdf="http://www.w3.org/1999/02/22-rdf-syntax-ns#"
   xmlns:svg="http://www.w3.org/2000/svg"
   xmlns="http://www.w3.org/2000/svg"
   xmlns:sodipodi="http://sodipodi.sourceforge.net/DTD/sodipodi-0.dtd"
   xmlns:inkscape="http://www.inkscape.org/namespaces/inkscape"
   width="46"
   height="46"
   viewBox="0 0 12.170833 12.170834"
   version="1.1"
   id="svg8"
   inkscape:version="0.92.4 (5da689c313, 2019-01-14)"
   sodipodi:docname="glacial.svg">
  <defs
     id="defs2" />
  <sodipodi:namedview
     id="base"
     pagecolor="#ffffff"
     bordercolor="#666666"
     borderopacity="1.0"
     inkscape:pageopacity="0.0"
     inkscape:pageshadow="2"
     inkscape:zoom="1.979899"
     inkscape:cx="33.802051"
     inkscape:cy="37.026135"
     inkscape:document-units="mm"
     inkscape:current-layer="layer1"
     showgrid="false"
     units="px"
     inkscape:window-width="624"
     inkscape:window-height="802"
     inkscape:window-x="-7"
     inkscape:window-y="0"
     inkscape:window-maximized="0" />
  <metadata
     id="metadata5">
    <rdf:RDF>
      <cc:Work
         rdf:about="">
        <dc:format>image/svg+xml</dc:format>
        <dc:type
           rdf:resource="http://purl.org/dc/dcmitype/StillImage" />
        <dc:title></dc:title>
      </cc:Work>
    </rdf:RDF>
  </metadata>
  <g
     inkscape:label="Camada 1"
     inkscape:groupmode="layer"
     id="layer1"
     transform="translate(0,-284.82915)">
    <path
       style="display:inline;fill:#000000;stroke-width:0.26458338"
       d="m 5.7986908,295.2255 c -0.172311,-0.91849 -0.177726,-0.92166 -0.8367811,-0.48983 -0.499963,0.32759 -0.738301,0.35969 -0.967658,0.13033 -0.2293559,-0.22936 -0.06309,-0.55134 0.6750442,-1.30726 0.5386438,-0.55162 0.9793528,-1.20629 0.9793528,-1.45481 0,-0.74548 -0.8910558,-0.51735 -1.852083,0.47418 -0.4936549,0.50932 -1.0457659,0.92604 -1.2269129,0.92604 -0.637271,0 -0.674156,-0.57521 -0.0776,-1.21021 l 0.603007,-0.64188 h -0.943855 c -0.5656591,0 -1.000901,-0.14866 -1.086224,-0.371 -0.20372105,-0.53089 0.0471,-0.68733 1.102014,-0.68733 h 0.928065 l -0.614121,-0.6537 c -0.518481,-0.5519 -0.560164,-0.71872 -0.267653,-1.07117 0.307349,-0.37034 0.469699,-0.29653 1.4379109,0.6537 1.1440152,1.12277 1.9974552,1.38688 1.9974552,0.61816 0,-0.24915 -0.4820261,-0.94415 -1.0711701,-1.54445 -0.950229,-0.96821 -1.024036,-1.13056 -0.6537031,-1.43791 0.3524541,-0.29251 0.5192741,-0.25082 1.0711711,0.26766 l 0.6537021,0.61412 v -1.10446 c 0,-0.92806 0.08451,-1.10445 0.5291669,-1.10445 0.4446551,0 0.529167,0.17639 0.529167,1.10445 v 1.10446 l 0.653702,-0.61412 c 0.5518971,-0.51848 0.7187171,-0.56017 1.071171,-0.26766 0.370333,0.30735 0.2965259,0.4697 -0.6537029,1.43791 -1.925152,1.96159 -1.0353022,2.85144 0.9262848,0.92629 0.968212,-0.95023 1.1305622,-1.02404 1.4379113,-0.6537 0.292511,0.35245 0.250828,0.51927 -0.2676531,1.07117 l -0.614121,0.6537 h 0.9280651 c 1.054918,0 1.305736,0.15644 1.102015,0.68733 -0.08532,0.22234 -0.520566,0.371 -1.086225,0.371 H 9.2605779 l 0.6030069,0.64188 c 0.5965532,0.635 0.5596682,1.21021 -0.0776,1.21021 -0.181147,0 -0.7332581,-0.41672 -1.2269132,-0.92604 -0.9610269,-0.99153 -1.8520828,-1.21966 -1.8520828,-0.47418 0,0.24852 0.4407088,0.90319 0.9793529,1.45481 0.738134,0.75592 0.9044,1.0779 0.6750441,1.30726 -0.2293569,0.22936 -0.4676952,0.19726 -0.9676579,-0.13033 -0.6590552,-0.43183 -0.6644701,-0.42866 -0.8367811,0.48983 -0.09539,0.50847 -0.2659941,0.92448 -0.3791252,0.92448 -0.113131,0 -0.283737,-0.41601 -0.3791248,-0.92448 z"
       id="path3832"
       inkscape:connector-curvature="0" />
  </g>
</svg>
