<?xml version="1.0" encoding="UTF-8" standalone="no"?>
<!-- Created with Inkscape (http://www.inkscape.org/) -->

<svg
   xmlns:dc="http://purl.org/dc/elements/1.1/"
   xmlns:cc="http://creativecommons.org/ns#"
   xmlns:rdf="http://www.w3.org/1999/02/22-rdf-syntax-ns#"
   xmlns:svg="http://www.w3.org/2000/svg"
   xmlns="http://www.w3.org/2000/svg"
   xmlns:sodipodi="http://sodipodi.sourceforge.net/DTD/sodipodi-0.dtd"
   xmlns:inkscape="http://www.inkscape.org/namespaces/inkscape"
   width="46"
   height="46"
   viewBox="0 0 12.170833 12.170834"
   version="1.1"
   id="svg8"
   inkscape:version="0.92.4 (5da689c313, 2019-01-14)"
   sodipodi:docname="gunslinger.svg">
  <defs
     id="defs2" />
  <sodipodi:namedview
     id="base"
     pagecolor="#ffffff"
     bordercolor="#666666"
     borderopacity="1.0"
     inkscape:pageopacity="0.0"
     inkscape:pageshadow="2"
     inkscape:zoom="1.979899"
     inkscape:cx="33.802051"
     inkscape:cy="37.026135"
     inkscape:document-units="mm"
     inkscape:current-layer="layer1"
     showgrid="false"
     units="px"
     inkscape:window-width="624"
     inkscape:window-height="802"
     inkscape:window-x="-7"
     inkscape:window-y="0"
     inkscape:window-maximized="0" />
  <metadata
     id="metadata5">
    <rdf:RDF>
      <cc:Work
         rdf:about="">
        <dc:format>image/svg+xml</dc:format>
        <dc:type
           rdf:resource="http://purl.org/dc/dcmitype/StillImage" />
        <dc:title></dc:title>
      </cc:Work>
    </rdf:RDF>
  </metadata>
  <g
     inkscape:label="Camada 1"
     inkscape:groupmode="layer"
     id="layer1"
     transform="translate(0,-284.82915)">
    <path
       style="display:inline;fill:#000000;stroke-width:0.26458338"
       d="m 1.9055137,295.26711 c -0.341633,-0.36365 -0.6676481,-1.18982 -0.8046251,-2.03904 -0.26342802,-1.63318 -0.08117,-1.93621 2.1532542,-3.57997 1.0933661,-0.80434 1.3068851,-0.87294 1.7859371,-0.57377 0.6651389,0.41539 0.6828459,0.63222 0.08108,0.99292 -0.434581,0.26049 -0.4305189,0.30298 0.06615,0.69176 0.525513,0.41137 0.524854,0.41776 -0.09546,0.92624 -0.6967259,0.57111 -1.497175,0.66723 -1.777625,0.21345 -0.125605,-0.20323 -0.2632791,-0.15783 -0.4311891,0.14221 -0.185391,0.33128 -0.04689,0.66831 0.5575441,1.35672 0.9077911,1.03392 0.8510089,1.54396 -0.234374,2.10523 -0.6701161,0.34653 -0.7708161,0.32828 -1.3006922,-0.23575 z m 7.0521071,0.16382 c -0.912109,-0.55887 -0.9250479,-1.27884 -0.03959,-2.20305 0.524055,-0.547 0.627357,-0.82651 0.4334889,-1.17293 -0.1722358,-0.30777 -0.3141761,-0.35829 -0.4390419,-0.15625 -0.2804502,0.45378 -1.0808991,0.35766 -1.7776251,-0.21345 -0.620087,-0.50829 -0.62078,-0.51498 -0.09546,-0.92101 0.3549348,-0.27434 0.433469,-0.476 0.2385189,-0.61247 -0.1598551,-0.11191 -1.0801461,-0.72188 -2.045091,-1.35549 -1.5442761,-1.01401 -1.7213231,-1.2139 -1.4779612,-1.66863 0.268909,-0.50246 0.3104322,-0.49706 1.5159241,0.19708 2.28131,1.31363 4.6724052,2.97116 5.3763685,3.72696 0.637592,0.68454 0.68117,0.86896 0.508588,2.15232 -0.129228,0.96096 -0.390874,1.60376 -0.829637,2.03818 -0.6189796,0.61287 -0.6657383,0.61932 -1.3684822,0.18874 z m -2.0368469,-7.58282 c -0.257279,-0.31 -0.1672241,-0.45718 0.4866309,-0.7953 0.754675,-0.39026 0.8188511,-0.38404 1.0804189,0.10471 0.2237222,0.41802 0.1773791,0.5735 -0.23705,0.7953 -0.6889369,0.36871 -0.9544489,0.3478 -1.3299998,-0.10471 z"
       id="path4783"
       inkscape:connector-curvature="0" />
  </g>
</svg>
