<?xml version="1.0" encoding="UTF-8" standalone="no"?>
<svg
   xmlns:dc="http://purl.org/dc/elements/1.1/"
   xmlns:cc="http://creativecommons.org/ns#"
   xmlns:rdf="http://www.w3.org/1999/02/22-rdf-syntax-ns#"
   xmlns:svg="http://www.w3.org/2000/svg"
   xmlns="http://www.w3.org/2000/svg"
   id="svg3769"
   version="1.1"
   viewBox="0 0 149.07822 103.06223"
   height="389.52652"
   width="563.44525">
  <defs
     id="defs3763" />
  <metadata
     id="metadata3766">
    <rdf:RDF>
      <cc:Work
         rdf:about="">
        <dc:format>image/svg+xml</dc:format>
        <dc:type
           rdf:resource="http://purl.org/dc/dcmitype/StillImage" />
        <dc:title></dc:title>
      </cc:Work>
    </rdf:RDF>
  </metadata>
  <g
     style="display:inline"
     transform="translate(-2.7526402,-192.82976)"
     id="layer1">
    <path
       id="path4785"
       d="m 5.3839272,295.16185 c -0.947545,-1.20067 -1.896164,-3.49081 -2.279678,-5.50357 l -0.351609,-1.84531 1.815666,-0.93156 1.815665,-0.93156 0.02637,2.29081 c 0.02555,2.21897 0.407847,2.25227 0.480471,0.0419 0.04977,-1.51483 0.262816,-1.64593 1.754488,-1.07971 1.244388,0.47237 1.306413,0.54214 1.230224,1.38389 -0.202053,2.23234 -1.302592,5.02584 -2.576389,6.53966 -0.851609,1.01208 -1.140293,1.01743 -1.915212,0.0355 z"
       style="fill:#000000;stroke-width:0.26458335" />
  </g>
  <g
     transform="translate(-2.7526402,91.99938)"
     style="display:inline"
     id="layer2">
    <path
       transform="translate(0,-284.82914)"
       id="path4787"
       d="m 25.231643,227.99084 v -3.89433 h 3.175 3.175 v 3.89433 3.89432 l -1.5875,-1.57094 -1.5875,-1.57093 -1.5875,1.57093 -1.5875,1.57094 z m 0,-5.61412 v -0.66146 h 3.175 3.175 v 0.66146 0.66146 h -3.175 -3.175 z"
       style="display:inline;fill:#000000;stroke-width:0.26458335" />
  </g>
  <g
     transform="translate(-2.7526402,91.99938)"
     style="display:inline"
     id="layer3">
    <path
       transform="translate(0,-284.82914)"
       id="path4834"
       d="m 30.075855,248.74853 c 0,-2.05116 0.72312,-4.6198 1.44264,-5.12446 0.15243,-0.10691 1.28918,-0.19439 2.52611,-0.19439 1.23692,0 2.37367,0.0875 2.5261,0.19439 0.71952,0.50466 1.44265,3.0733 1.44265,5.12446 v 2.08138 h -3.96875 -3.96875 z m 6.35,-0.0353 c 0,-0.48997 -0.17639,-0.52917 -2.38125,-0.52917 -2.20486,0 -2.38125,0.0392 -2.38125,0.52917 0,0.48997 0.17639,0.52916 2.38125,0.52916 2.20486,0 2.38125,-0.0392 2.38125,-0.52916 z m -3.43959,-3.04271 c 0,-0.22049 -0.23518,-0.39688 -0.52916,-0.39688 -0.29398,0 -0.52917,0.17639 -0.52917,0.39688 0,0.22048 0.23519,0.39687 0.52917,0.39687 0.29398,0 0.52916,-0.17639 0.52916,-0.39687 z m 3.175,0 c 0,-0.22049 -0.23518,-0.39688 -0.52916,-0.39688 -0.29398,0 -0.52917,0.17639 -0.52917,0.39688 0,0.22048 0.23519,0.39687 0.52917,0.39687 0.29398,0 0.52916,-0.17639 0.52916,-0.39687 z m -7.40833,2.24896 c 0,-0.88195 0.0882,-1.05834 0.52917,-1.05834 0.44097,0 0.52916,0.17639 0.52916,1.05834 0,0.88194 -0.0882,1.05833 -0.52916,1.05833 -0.44098,0 -0.52917,-0.17639 -0.52917,-1.05833 z m 9.525,0 c 0,-0.88195 0.0882,-1.05834 0.52917,-1.05834 0.44097,0 0.52916,0.17639 0.52916,1.05834 0,0.88194 -0.0882,1.05833 -0.52916,1.05833 -0.44098,0 -0.52917,-0.17639 -0.52917,-1.05833 z"
       style="display:inline;fill:#000000;stroke-width:0.26458335" />
  </g>
  <g
     transform="translate(-2.7526402,91.99938)"
     id="layer4">
    <path
       transform="translate(0,-284.82914)"
       id="path4795"
       d="m 33.927438,266.39741 c -0.668994,-0.42954 -1.468016,-1.13442 -1.775604,-1.56639 -0.476528,-0.66922 -0.519843,-0.92811 -0.292837,-1.75026 0.174213,-0.63095 0.178734,-1.44594 0.01306,-2.35492 -0.139341,-0.76453 -0.22172,-1.42229 -0.183065,-1.46168 0.03866,-0.0394 0.661423,0.0551 1.383928,0.21009 0.916368,0.19652 1.533375,0.19818 2.040209,0.005 0.930816,-0.3539 2.570082,-0.3539 3.500898,0 0.506834,0.19269 1.123841,0.19103 2.040209,-0.005 0.722505,-0.15495 1.345272,-0.24949 1.383928,-0.21009 0.03866,0.0394 -0.04372,0.69715 -0.183065,1.46168 -0.164716,0.90375 -0.161208,1.72375 0.01002,2.34391 0.224272,0.81224 0.179748,1.06696 -0.2999,1.71572 -1.121434,1.51682 -2.484548,2.20853 -4.542151,2.30491 -1.708234,0.08 -1.989999,0.017 -3.09564,-0.69297 z m 4.192916,-1.43786 c 0.598538,-0.47886 0.350373,-0.59668 -1.256771,-0.59668 -1.656686,0 -1.90834,0.27811 -0.772856,0.85411 0.646227,0.32781 1.420941,0.22955 2.029627,-0.25743 z M 35.0115,262.36429 c 0.3349,-0.18125 0.318955,-0.2448 -0.102109,-0.40698 -0.540789,-0.2083 -1.253613,0.12272 -1.434802,0.66629 -0.115655,0.34697 0.657763,0.21647 1.536911,-0.25931 z m 5.231821,0.23155 c -0.174879,-0.52464 -0.899216,-0.84202 -1.425546,-0.62463 -0.444114,0.18344 -0.411701,0.24494 0.294766,0.55934 0.998316,0.44428 1.262191,0.45952 1.13078,0.0653 z"
       style="display:inline;fill:#000000;stroke-width:0.26458335" />
  </g>
  <g
     transform="translate(-2.7526402,91.99938)"
     id="layer5">
    <path
       transform="translate(0,-284.82914)"
       id="path4779"
       d="m 51.270802,258.44132 c 0,-0.14552 0.16014,-0.26458 0.355867,-0.26458 0.539336,0 1.290761,-0.95593 1.180421,-1.50167 -0.101656,-0.5028 -0.151182,-0.50628 -2.622189,-0.18454 -1.576415,0.20526 -2.25625,-0.17616 -2.648702,-1.48604 -0.419243,-1.39931 0.254245,-4.2364 1.319029,-5.55645 1.212618,-1.50333 3.326319,-1.3718 3.997574,0.24875 0.484427,1.16951 -0.543236,3.18828 -1.623008,3.18828 -0.967234,0 -0.479585,0.73309 0.682256,1.02564 2.144397,0.53997 3.009999,2.7555 1.619737,4.14576 -0.651117,0.65112 -2.260985,0.92514 -2.260985,0.38485 z m 0.748593,-7.23696 c 0.06732,-0.34954 -0.04126,-0.45811 -0.390798,-0.3908 -0.266206,0.0513 -0.525955,0.31102 -0.577222,0.57722 -0.06731,0.34954 0.04126,0.45811 0.390798,0.3908 0.266206,-0.0513 0.525956,-0.31102 0.577222,-0.57722 z m -1.852716,-1.34509 c 0.06097,-0.51876 -0.01714,-0.70197 -0.264583,-0.62065 -0.193098,0.0635 -0.390012,0.4466 -0.437588,0.85142 -0.06097,0.51876 0.01714,0.70197 0.264583,0.62065 0.193097,-0.0635 0.390012,-0.4466 0.437588,-0.85142 z"
       style="display:inline;fill:#000000;stroke-width:0.26458335" />
  </g>
  <g
     transform="translate(-2.7526402,91.99938)"
     style="display:inline"
     id="layer6">
    <path
       transform="translate(0,-284.82914)"
       id="path4777"
       d="m 59.383136,267.39232 c -2.274603,-0.7413 -2.440407,-0.96578 -2.440407,-3.30389 0,-1.14262 0.07603,-2.45762 0.168946,-2.92223 l 0.168945,-0.84472 0.997797,0.97432 c 0.548788,0.53588 1.125801,0.89521 1.28225,0.79852 0.15645,-0.0967 0.776079,-1.00333 1.376954,-2.01475 0.600874,-1.01142 1.184423,-1.83895 1.296775,-1.83895 0.112352,0 0.695901,0.82753 1.296775,1.83895 0.600875,1.01142 1.220504,1.91806 1.376954,2.01475 0.156449,0.0967 0.740432,-0.26945 1.297739,-0.81365 l 1.013286,-0.98944 0.170281,1.15751 c 0.09365,0.63663 0.132944,1.99094 0.08731,3.00959 l -0.08297,1.85208 -1.30185,0.64511 c -1.601879,0.79379 -4.945465,1.01148 -6.708785,0.4368 z"
       style="display:inline;fill:#000000;stroke-width:0.26458335" />
  </g>
  <g
     transform="translate(-2.7526402,91.99938)"
     id="layer7">
    <path
       transform="translate(0,-284.82914)"
       id="path4789"
       d="m 50.921753,230.34637 c -0.0061,-0.15409 0.163794,-0.51128 0.377447,-0.79375 0.677114,-0.89523 0.476053,-1.1294 -1.116065,-1.29986 -0.836744,-0.0896 -2.100995,-0.23032 -2.809445,-0.31275 l -1.288091,-0.14988 2.199465,-2.21095 2.199465,-2.21095 -0.911374,-0.39539 c -0.906251,-0.39317 -0.907225,-0.39545 -0.173229,-0.40575 0.844595,-0.0119 2.605387,0.81964 3.383525,1.59778 0.504872,0.50487 1.211194,0.47413 0.894115,-0.0389 -0.08426,-0.13633 0.320301,-0.2463 0.906111,-0.2463 0.582083,0 1.120258,0.1002 1.195944,0.22266 0.07569,0.12247 -0.274474,0.62207 -0.778135,1.11024 -0.50366,0.48817 -0.915746,0.74516 -0.915746,0.57109 0,-0.80177 -0.438613,-0.1737 -0.845307,1.21042 -0.402805,1.37089 -2.289348,4.09842 -2.31868,3.35231 z m 1.311903,-3.42401 c 0,-0.50932 -0.04089,-0.92604 -0.09087,-0.92604 -0.137245,0 -3.15888,1.03832 -3.613295,1.24163 -0.438252,0.19608 1.047372,0.50992 2.711979,0.57291 0.964691,0.0365 0.992187,0.0119 0.992186,-0.8885 z m -2.093284,-1.02667 c 0.921416,-0.34639 1.712105,-0.74021 1.757085,-0.87515 0.04498,-0.13494 -0.194198,-0.50462 -0.531509,-0.8215 l -0.613291,-0.57616 -1.433275,1.4513 c -0.788301,0.79822 -1.303008,1.45131 -1.143794,1.45131 0.159214,0 1.043367,-0.28341 1.964784,-0.6298 z"
       style="display:inline;fill:#000000;stroke-width:0.26458335" />
  </g>
  <g
     transform="translate(-2.7526402,91.99938)"
     id="layer8">
    <path
       transform="translate(0,-284.82914)"
       id="path3832"
       d="m 64.916261,232.49993 c -0.172311,-0.91849 -0.177726,-0.92166 -0.836781,-0.48983 -0.499963,0.32759 -0.738301,0.35969 -0.967658,0.13033 -0.229356,-0.22936 -0.06309,-0.55134 0.675044,-1.30726 0.538644,-0.55162 0.979353,-1.20629 0.979353,-1.45481 0,-0.74548 -0.891056,-0.51735 -1.852083,0.47418 -0.493655,0.50932 -1.045766,0.92604 -1.226913,0.92604 -0.637271,0 -0.674156,-0.57521 -0.0776,-1.21021 l 0.603007,-0.64188 h -0.943855 c -0.565659,0 -1.000901,-0.14866 -1.086224,-0.371 -0.203721,-0.53089 0.0471,-0.68733 1.102014,-0.68733 h 0.928065 l -0.614121,-0.6537 c -0.518481,-0.5519 -0.560164,-0.71872 -0.267653,-1.07117 0.307349,-0.37034 0.469699,-0.29653 1.437911,0.6537 1.144015,1.12277 1.997455,1.38688 1.997455,0.61816 0,-0.24915 -0.482026,-0.94415 -1.07117,-1.54445 -0.950229,-0.96821 -1.024036,-1.13056 -0.653703,-1.43791 0.352454,-0.29251 0.519274,-0.25082 1.071171,0.26766 l 0.653702,0.61412 v -1.10446 c 0,-0.92806 0.08451,-1.10445 0.529167,-1.10445 0.444655,0 0.529167,0.17639 0.529167,1.10445 v 1.10446 l 0.653702,-0.61412 c 0.551897,-0.51848 0.718717,-0.56017 1.071171,-0.26766 0.370333,0.30735 0.296526,0.4697 -0.653703,1.43791 -1.925152,1.96159 -1.035302,2.85144 0.926285,0.92629 0.968212,-0.95023 1.130562,-1.02404 1.437911,-0.6537 0.292511,0.35245 0.250828,0.51927 -0.267653,1.07117 l -0.614121,0.6537 h 0.928065 c 1.054917,0 1.305735,0.15644 1.102014,0.68733 -0.08532,0.22234 -0.520565,0.371 -1.086224,0.371 h -0.943855 l 0.603007,0.64188 c 0.596553,0.635 0.559668,1.21021 -0.0776,1.21021 -0.181147,0 -0.733258,-0.41672 -1.226913,-0.92604 -0.961027,-0.99153 -1.852083,-1.21966 -1.852083,-0.47418 0,0.24852 0.440709,0.90319 0.979353,1.45481 0.738134,0.75592 0.9044,1.0779 0.675044,1.30726 -0.229357,0.22936 -0.467695,0.19726 -0.967658,-0.13033 -0.659055,-0.43183 -0.66447,-0.42866 -0.836781,0.48983 -0.09539,0.50847 -0.265994,0.92448 -0.379125,0.92448 -0.113131,0 -0.283737,-0.41601 -0.379125,-0.92448 z"
       style="display:inline;fill:#000000;stroke-width:0.26458335" />
  </g>
  <g
     transform="translate(-2.7526402,91.99938)"
     id="layer9">
    <path
       transform="translate(0,-284.82914)"
       id="path4793"
       d="m 76.881731,243.9913 c -1.066776,-0.52887 -1.365673,-1.11103 -0.570437,-1.11103 0.303169,0 0.551216,-0.11906 0.551216,-0.26458 0,-0.14552 0.178593,-0.26458 0.396875,-0.26458 0.218281,0 0.396875,-0.11907 0.396875,-0.26459 0,-0.14552 0.245151,-0.26458 0.544781,-0.26458 0.29963,0 0.477482,-0.10889 0.395227,-0.24198 -0.08226,-0.1331 1.5e-5,-0.29199 0.182822,-0.3531 0.182808,-0.0611 0.005,-0.17383 -0.395226,-0.25049 -0.400182,-0.0767 -0.727604,-0.0298 -0.727604,0.10413 0,0.13393 -0.119976,0.16935 -0.266613,0.0787 -0.307351,-0.18996 -1.056304,0.4742 -1.056304,0.9367 0,0.17149 -0.178594,0.24326 -0.396875,0.1595 -0.269952,-0.10359 -0.396875,0.0143 -0.396875,0.36856 0,0.77637 -0.493204,0.62921 -0.6929,-0.20674 -0.0956,-0.40018 -0.274867,-0.85694 -0.398375,-1.01503 -0.123507,-0.15808 -0.405008,-0.79887 -0.625558,-1.42398 l -0.400999,-1.13655 1.062445,0.14251 c 0.868361,0.11647 1.325821,-0.0101 2.504207,-0.69269 0.792968,-0.45936 1.446224,-0.96327 1.451679,-1.1198 0.0101,-0.28998 0.909872,-1.19069 1.559618,-1.56125 0.272653,-0.1555 0.316122,-0.0695 0.180608,0.35751 -0.207198,0.65283 -0.002,0.68991 0.915525,0.16543 1.129618,-0.64575 1.491849,-0.46987 0.71096,0.34521 -0.880869,0.91942 -0.889368,1.11 -0.0495,1.11 0.774885,0 0.822204,0.17758 0.223577,0.83906 -0.391119,0.43218 -0.393287,0.48385 -0.0203,0.48385 0.22967,0 0.801465,0.32302 1.270655,0.71782 l 0.853073,0.71781 -0.855879,0.22178 c -0.669923,0.1736 -0.813986,0.31944 -0.663062,0.67125 0.106051,0.24721 0.250502,0.78696 0.321004,1.19945 l 0.128186,0.74997 -1.109669,-0.56611 c -1.423802,-0.72637 -2.595697,-0.4165 -3.190292,0.84356 -0.488259,1.03472 -0.68799,1.09185 -1.832862,0.52425 z"
       style="display:inline;fill:#000000;stroke-width:0.26458335" />
  </g>
  <g
     transform="translate(-2.7526402,91.99938)"
     id="layer10">
    <path
       transform="translate(0,-284.82914)"
       id="path4803"
       d="m 81.633078,257.15824 c -0.59955,-0.29951 -1.14121,-0.88238 -1.53633,-1.65323 -0.83494,-1.6289 -0.62357,-2.83185 0.88395,-5.03061 0.69138,-1.00838 1.18155,-2.0237 1.18155,-2.44739 0,-0.83407 0.27893,-0.90025 1.21346,-0.28792 0.83814,0.54917 1.43237,1.67995 1.43237,2.72569 0,1.05686 0.39849,1.02984 0.78178,-0.053 l 0.30438,-0.8599 0.64619,1.05834 c 0.35541,0.58208 0.66346,1.23692 0.68456,1.4552 0.19039,1.96941 0.11962,2.60413 -0.39392,3.53304 -1.00838,1.82398 -3.29537,2.51025 -5.19799,1.55978 z m 2.39865,-1.39796 c 0.61862,-0.33108 0.65313,-1.06653 0.1002,-2.13577 l -0.41156,-0.79588 -0.64677,0.95306 c -0.72412,1.06705 -0.79292,1.47134 -0.32927,1.93498 0.38872,0.38872 0.62745,0.39681 1.2874,0.0436 z"
       style="display:inline;fill:#000000;stroke-width:0.26458335" />
  </g>
  <g
     transform="translate(-2.7526402,91.99938)"
     id="layer11">
    <path
       transform="translate(0,-284.82914)"
       id="path4821"
       d="m 92.395644,278.15676 c -0.800762,-0.72517 -1.875258,-1.4937 -2.387771,-1.70784 -1.127768,-0.47121 -1.354115,-0.96332 -0.922432,-2.00549 0.339169,-0.81883 0.454719,-0.87548 1.630542,-0.79932 0.388559,0.0252 1.067255,-0.1408 1.508215,-0.36883 1.004198,-0.5193 2.251713,-0.53391 2.668864,-0.0313 0.174974,0.21083 0.374611,0.87493 0.443639,1.47578 0.06903,0.60084 0.238103,1.38859 0.375722,1.75056 0.60438,1.58964 -0.0028,3.00492 -1.28917,3.00492 -0.314595,0 -1.22641,-0.59293 -2.027609,-1.3185 z m 4.479158,-1.70803 c -0.478803,-0.35605 -0.486469,-0.43575 -0.108267,-1.12572 0.339602,-0.61955 0.580042,-0.74254 1.451585,-0.74254 1.211303,0 1.48431,0.51797 0.732195,1.38918 -0.648285,0.75094 -1.458446,0.93794 -2.075513,0.47908 z m -0.47119,-2.97069 c -0.287482,-0.28748 -0.20113,-1.28054 0.141111,-1.62278 0.174625,-0.17462 0.650875,-0.3175 1.058333,-0.3175 0.600777,0 0.740834,0.1173 0.740834,0.62045 0,0.99102 -1.350464,1.90964 -1.940278,1.31983 z m -5.291667,-1.05834 c -0.325914,-0.32591 -0.180247,-1.81702 0.235489,-2.41057 0.513624,-0.7333 1.069208,-0.75208 1.445554,-0.0489 0.609352,1.13859 -0.856822,3.28368 -1.681043,2.45945 z m 2.842194,-1.01616 c -0.208288,-0.82988 0.498564,-1.98245 1.215809,-1.98245 0.729957,0 0.971106,1.14351 0.418884,1.98631 -0.568002,0.86688 -1.416655,0.86488 -1.634693,-0.004 z"
       style="display:inline;fill:#000000;stroke-width:0.26458335" />
  </g>
  <g
     transform="translate(-2.7526402,91.99938)"
     id="layer12">
    <path
       transform="translate(0,-284.82914)"
       id="path4819"
       d="m 111.51179,276.93307 c -0.94924,-0.41165 -2.11856,-1.36453 -2.11856,-1.72644 0,-0.11197 0.51108,0.0225 1.13572,0.2988 2.49203,1.10234 4.63966,0.85541 5.62383,-0.64663 0.64334,-0.98185 0.40869,-3.2449 -0.40475,-3.90358 -0.7764,-0.62869 -1.92103,-0.61068 -2.50942,0.0395 -0.4699,0.51923 -0.39966,1.33277 0.11507,1.33277 0.15009,0 0.27289,0.11906 0.27289,0.26458 0,0.14552 -0.35413,0.26459 -0.78696,0.26459 -0.60385,0 -0.88088,-0.18163 -1.19062,-0.78061 -0.62273,-1.20422 -0.50512,-1.99741 0.41038,-2.76775 1.06103,-0.89279 3.35267,-0.96558 4.69198,-0.14903 2.50418,1.52676 2.05371,6.19451 -0.73344,7.59999 -1.37831,0.69504 -3.1469,0.76327 -4.50612,0.17384 z m -0.17839,-1.45635 c -0.46088,-0.13343 -1.14075,-0.60245 -1.51082,-1.04226 -1.67287,-1.98809 -1.00618,-5.86084 1.2126,-7.044 1.79995,-0.95982 5.33491,-0.37578 6.54409,1.0812 0.45688,0.55051 0.1705,0.52524 -1.57145,-0.13868 -2.92696,-1.11555 -5.29564,-0.0448 -5.28777,2.39034 0.005,1.60106 0.47564,2.4582 1.51248,2.75557 0.6519,0.18696 1.00324,0.14169 1.51801,-0.1956 0.747,-0.48946 0.87815,-1.15706 0.27291,-1.38932 -0.67016,-0.25716 -0.44062,-0.62484 0.39008,-0.62484 0.60385,0 0.88088,0.18163 1.19062,0.78061 0.80799,1.56247 0.41774,2.64874 -1.18146,3.28861 -1.1815,0.47274 -1.83348,0.50194 -3.08929,0.13837 z"
       style="display:inline;fill:#000000;stroke-width:0.26458335" />
  </g>
  <g
     transform="translate(-2.7526402,91.99938)"
     id="layer13">
    <path
       transform="translate(0,-284.82914)"
       id="path4817"
       d="m 109.6772,261.20401 c -0.36499,-1.40726 -0.40196,-1.95564 -0.17249,-2.55917 0.40792,-1.07293 0.22901,-1.33937 -1.16068,-1.72846 -0.66809,-0.18706 -1.21471,-0.41879 -1.21471,-0.51497 0,-0.29672 3.28891,-1.06914 3.88672,-0.91281 0.45613,0.11928 0.74348,-0.1192 1.50357,-1.24787 0.60898,-0.90427 0.98544,-1.26213 1.06972,-1.01686 0.71505,2.08103 0.9272,3.36603 0.69143,4.18811 -0.14132,0.49275 -0.2006,0.98709 -0.13172,1.09853 0.0689,0.11144 0.72027,0.35512 1.44754,0.54151 0.72728,0.1864 1.32232,0.41056 1.32232,0.49814 0,0.29864 -3.4336,1.07522 -4.05948,0.91814 -0.52942,-0.13288 -0.75406,0.0464 -1.48475,1.18509 -0.47351,0.73791 -0.94463,1.34166 -1.04693,1.34166 -0.1023,0 -0.39504,-0.80597 -0.65054,-1.79104 z m 2.87607,-3.23604 c 0,-0.86801 -1.05932,-1.09509 -1.31727,-0.28238 -0.23162,0.72979 0.0554,1.12366 0.74693,1.02511 0.4103,-0.0585 0.57034,-0.26688 0.57034,-0.74273 z"
       style="display:inline;fill:#000000;stroke-width:0.26458335" />
  </g>
  <g
     transform="translate(-2.7526402,91.99938)"
     id="layer14">
    <path
       transform="translate(0,-284.82914)"
       id="path4815"
       d="m 131.73517,269.39205 c -0.70355,-0.19334 -1.33286,-0.4052 -1.39847,-0.47082 -0.0656,-0.0656 -0.0374,-1.56755 0.0626,-3.33764 0.23222,-4.10887 0.73066,-4.23689 0.83794,-0.21522 0.0804,3.01239 0.0506,2.94548 1.8146,4.07622 0.62645,0.40156 0.28643,0.38799 -1.31665,-0.0525 z m 6.26877,0.0734 c 1.83306,-1.25271 1.75727,-1.0783 1.75727,-4.04377 0,-1.65756 0.11168,-2.81233 0.28219,-2.91771 0.1552,-0.0959 0.31809,-0.13271 0.36197,-0.0818 0.0439,0.051 0.16182,1.54473 0.26208,3.31952 l 0.1823,3.22688 -1.13958,0.2946 c -2.25535,0.58303 -2.26515,0.58419 -1.70623,0.20224 z m -4.56361,-0.79892 -1.42608,-0.80093 0.16931,-2.38529 c 0.0931,-1.31191 0.16932,-2.7262 0.16932,-3.14286 v -0.75756 l 1.32291,0.67038 1.32292,0.67037 v 3.30283 c 0,1.81656 -0.0298,3.2896 -0.0662,3.27341 -0.0364,-0.0162 -0.70788,-0.38984 -1.49223,-0.83035 z m 2.61671,-2.46851 v -3.27738 l 1.28437,-0.65084 1.28437,-0.65084 0.17084,2.40682 c 0.28611,4.03073 0.35732,3.77228 -1.28437,4.66146 l -1.45521,0.78817 z"
       style="display:inline;fill:#000000;stroke-width:0.26458335" />
  </g>
  <g
     transform="translate(-2.7526402,91.99938)"
     id="layer15">
    <path
       transform="translate(0,-284.82914)"
       id="path4813"
       d="m 127.82098,248.09238 c -2.04635,-0.88638 -3.175,-2.53611 -3.175,-4.64088 0,-2.89894 1.84355,-4.9698 4.62998,-5.20088 2.61207,-0.21661 4.93482,1.52963 5.33781,4.01296 l 0.15697,0.96729 -1.0625,-1.0625 c -0.93033,-0.93033 -1.21294,-1.0625 -2.2718,-1.0625 -1.58629,0 -2.44563,0.41859 -3.12887,1.5241 -1.08554,1.75645 -0.46091,4.20156 1.29441,5.06692 0.46905,0.23124 0.85552,0.50974 0.85883,0.61888 0.0103,0.33957 -1.66802,0.19755 -2.63983,-0.22339 z m 2.21753,-2.63172 c -0.35476,-0.54144 -0.38215,-0.80038 -0.14068,-1.33035 0.1649,-0.36192 0.47972,-0.72707 0.69958,-0.81144 0.72424,-0.27792 1.73195,0.16132 2.00246,0.87281 0.62117,1.63381 -1.60097,2.73472 -2.56136,1.26898 z"
       style="display:inline;fill:#000000;stroke-width:0.26458335" />
  </g>
  <g
     transform="translate(-2.7526402,91.99938)"
     id="layer16">
    <path
       transform="translate(0,-284.82914)"
       id="path4811"
       d="m 144.53173,248.78888 c -0.44926,-0.11664 -0.95387,-0.29676 -1.12134,-0.40027 -0.37935,-0.23445 -1.73823,-2.52574 -1.58738,-2.67658 0.0608,-0.0608 0.7599,0.075 1.5535,0.30176 2.19605,0.6276 2.89811,0.72254 2.89811,0.39193 0,-0.16204 -0.22456,-0.29461 -0.49902,-0.29461 -0.31401,0 -0.66871,-0.3576 -0.95673,-0.96455 -0.7975,-1.68061 -0.14701,-4.06254 1.10945,-4.06254 0.19046,0 0.3463,-0.17859 0.3463,-0.39687 0,-0.45274 0.43729,-0.54022 0.57877,-0.11579 0.0655,0.19651 0.31099,0.19848 0.8158,0.007 0.84958,-0.32301 0.83683,-0.36227 0.29978,0.92306 -0.46859,1.12151 -0.35379,2.57138 0.30439,3.84416 l 0.3961,0.76598 h -0.93284 c -0.51306,0 -0.93283,0.11906 -0.93283,0.26458 0,0.14552 0.36895,0.26458 0.81989,0.26458 0.565,0 1.04445,-0.24039 1.54222,-0.77326 0.75916,-0.81268 2.66497,-1.40663 2.66497,-0.83054 0,0.5059 -0.78676,1.86839 -1.07889,1.86839 -0.14935,0 -0.39274,0.34764 -0.54086,0.77253 -0.14812,0.4249 -0.45715,0.84462 -0.68673,0.93272 -0.72364,0.27769 -4.14044,0.40003 -4.99266,0.17877 z"
       style="display:inline;fill:#000000;stroke-width:0.26458335" />
  </g>
  <g
     transform="translate(-2.7526402,91.99938)"
     id="layer17">
    <path
       transform="translate(0,-284.82914)"
       id="path4809"
       d="m 146.83085,231.41595 c -0.76398,-0.52095 -1.38906,-1.10878 -1.38906,-1.30629 0,-0.45731 -0.006,-0.45792 1.57771,0.16622 1.32944,0.52402 1.33597,0.52402 2.66542,0 1.58356,-0.62419 1.5777,-0.62357 1.5777,-0.16589 0,0.28367 -2.68893,2.33693 -2.97249,2.26979 -0.0386,-0.009 -0.69529,-0.44287 -1.45928,-0.96383 z m -0.29915,-2.07778 c -1.4188,-0.6443 -1.42308,-0.64987 -1.25969,-1.6384 0.0902,-0.54555 0.16527,-1.19171 0.16687,-1.43592 0.002,-0.29473 0.49217,-0.62707 1.45812,-0.98847 l 1.45521,-0.54447 1.45521,0.54447 c 0.96594,0.3614 1.45618,0.69374 1.45812,0.98847 0.002,0.24421 0.0767,0.89018 0.16679,1.4355 l 0.16389,0.99149 -1.49726,0.66216 c -1.80086,0.79642 -1.78065,0.7965 -3.56726,-0.0148 z m 1.54068,-2.82875 c 0.01,-0.29171 -0.18054,-0.46302 -0.51392,-0.46302 -0.45742,0 -0.52917,0.17639 -0.52917,1.30087 0,2.30594 0.96508,1.53075 1.04309,-0.83785 z m 1.60274,0.83159 c 0,-1.14472 -0.0653,-1.29461 -0.56378,-1.29461 -0.50425,0 -0.54647,0.10477 -0.39979,0.99219 0.0902,0.5457 0.16531,1.19681 0.16691,1.44691 0.002,0.29496 0.14235,0.40121 0.39979,0.30242 0.27795,-0.10666 0.39687,-0.54022 0.39687,-1.44691 z m -3.43958,-0.10398 c 0,-0.50932 -0.11906,-0.92604 -0.26458,-0.92604 -0.14552,0 -0.26459,0.41672 -0.26459,0.92604 0,0.50932 0.11907,0.92604 0.26459,0.92604 0.14552,0 0.26458,-0.41672 0.26458,-0.92604 z m 4.7625,0 c 0,-0.50932 -0.11906,-0.92604 -0.26458,-0.92604 -0.14552,0 -0.26459,0.41672 -0.26459,0.92604 0,0.50932 0.11907,0.92604 0.26459,0.92604 0.14552,0 0.26458,-0.41672 0.26458,-0.92604 z m -5.29167,-2.7232 c 0,-0.36565 1.00496,-1.32524 1.57855,-1.50729 0.29597,-0.0939 0.53812,-0.34137 0.53812,-0.54984 0,-0.20848 0.23813,-0.37905 0.52917,-0.37905 0.29104,0 0.52916,0.16415 0.52916,0.36478 0,0.20063 0.33073,0.50176 0.73494,0.6692 0.69029,0.28592 1.54726,1.26994 1.31139,1.5058 -0.0589,0.0589 -0.67519,-0.064 -1.36965,-0.273 -0.75249,-0.22647 -1.4917,-0.29576 -1.82956,-0.1715 -1.09296,0.40196 -2.02212,0.5586 -2.02212,0.3409 z"
       style="display:inline;fill:#000000;stroke-width:0.26458335" />
  </g>
  <g
     transform="translate(-2.7526402,91.99938)"
     id="layer18">
    <path
       transform="translate(0,-284.82914)"
       id="path4799"
       d="m 83.798543,224.68246 c -1.37474,-0.28667 -2.50799,-1.02016 -2.14185,-1.3863 0.0647,-0.0647 1.01598,-0.0335 2.11393,0.0694 1.86741,0.17499 1.99628,0.2273 1.99628,0.81033 0,0.84471 -0.15524,0.88466 -1.96836,0.50656 z m -6.239861,-3.17548 c -0.14169,-0.37268 -0.331295,-1.30447 -0.421344,-2.07064 l -0.163726,-1.39305 2.938821,-1.62573 2.93882,-1.62572 1.66917,0.51555 1.66917,0.51555 -0.0856,1.79175 c -0.0471,0.98546 -0.15159,2.42346 -0.23222,3.19554 l -0.1466,1.40379 -0.96014,-0.0809 c -0.89415,-0.0753 -0.98186,-0.16271 -1.27606,-1.2715 l -0.31593,-1.19062 -0.026,1.27434 c -0.025,1.22433 -0.0541,1.27106 -0.7424,1.19063 -0.60257,-0.0704 -0.76664,-0.27295 -1.03236,-1.27435 l -0.31593,-1.19062 -0.026,1.25677 c -0.0251,1.21312 -0.0534,1.25677 -0.8166,1.25677 -0.71852,0 -0.80614,-0.097 -0.960792,-1.0642 -0.235839,-1.47486 -0.594034,-1.57615 -0.430088,-0.12162 0.121639,1.07918 0.08239,1.18582 -0.436466,1.18582 -0.368301,0 -0.661322,-0.23987 -0.827745,-0.67759 z"
       style="display:inline;fill:#000000;stroke-width:0.26458335" />
  </g>
  <g
     transform="translate(-2.7526402,91.99938)"
     id="layer19">
    <path
       transform="translate(0,-284.82914)"
       id="path4805"
       d="m 93.46655,212.80085 c -0.27039,-0.38605 -0.32041,-0.67355 -0.14729,-0.84667 0.14417,-0.14417 0.26213,-0.5955 0.26213,-1.00296 0,-0.80454 -0.31425,-0.91005 -1.43798,-0.4828 -0.92153,0.35036 -0.93419,-0.34301 -0.0172,-0.94382 0.61975,-0.40608 0.66199,-0.57746 0.66982,-2.71808 0.007,-2.04589 0.0766,-2.36227 0.66146,-3.02704 l 0.6531,-0.74235 0.65309,0.74235 c 0.58484,0.66477 0.65398,0.98115 0.66146,3.02704 0.008,2.14062 0.0501,2.312 0.66982,2.71808 0.91696,0.60081 0.90431,1.29418 -0.0172,0.94382 -1.12374,-0.42725 -1.43799,-0.32174 -1.43799,0.4828 0,0.40746 0.11796,0.85879 0.26213,1.00296 0.27974,0.27974 -0.35689,1.4312 -0.79129,1.4312 -0.12902,0 -0.41882,-0.26304 -0.64401,-0.58453 z"
       style="display:inline;fill:#000000;stroke-width:0.26458335" />
  </g>
  <g
     transform="translate(-2.7526402,91.99938)"
     id="layer20">
    <path
       transform="translate(0,-284.82914)"
       id="path4801"
       d="m 71.807892,210.6197 c -0.465348,-0.75295 1.333464,-3.59497 2.527238,-3.99289 0.186374,-0.0621 0.133199,-0.39991 -0.153395,-0.9744 -0.820996,-1.64573 0.213137,-4.00821 1.754519,-4.00821 0.489898,0 0.514412,0.22066 0.514412,4.63021 v 4.63021 h -2.233343 c -1.309743,0 -2.306165,-0.11783 -2.409431,-0.28492 z m 9.504462,-0.1781 c -0.630826,-1.96309 -1.23306,-2.71931 -2.568577,-3.22534 l -0.749598,-0.28402 0.683452,-0.81224 c 0.90427,-1.07466 0.918081,-2.41314 0.03402,-3.2972 -0.357187,-0.35719 -0.773906,-0.64943 -0.926041,-0.64943 -0.152136,0 -0.27661,-0.11907 -0.27661,-0.26459 0,-0.47414 1.012495,-0.27877 1.71397,0.33073 0.90077,0.78267 1.138317,2.24354 0.554961,3.4129 -0.286594,0.57449 -0.339769,0.91227 -0.153395,0.9744 1.605215,0.53507 3.437189,4.27781 2.093878,4.27781 -0.141499,0 -0.324227,-0.20836 -0.40606,-0.46302 z"
       style="display:inline;fill:#000000;stroke-width:0.26458335" />
  </g>
  <g
     transform="translate(-2.7526402,91.99938)"
     id="layer21">
    <path
       transform="translate(0,-284.82914)"
       id="path4783"
       d="m 51.521225,216.55878 c -0.341633,-0.36365 -0.667648,-1.18982 -0.804625,-2.03904 -0.263428,-1.63318 -0.08117,-1.93621 2.153254,-3.57997 1.093366,-0.80434 1.306885,-0.87294 1.785937,-0.57377 0.665139,0.41539 0.682846,0.63222 0.08108,0.99292 -0.434581,0.26049 -0.430519,0.30298 0.06615,0.69176 0.525513,0.41137 0.524854,0.41776 -0.09546,0.92624 -0.696726,0.57111 -1.497175,0.66723 -1.777625,0.21345 -0.125605,-0.20323 -0.263279,-0.15783 -0.431189,0.14221 -0.185391,0.33128 -0.04689,0.66831 0.557544,1.35672 0.907791,1.03392 0.851009,1.54396 -0.234374,2.10523 -0.670116,0.34653 -0.770816,0.32828 -1.300692,-0.23575 z m 7.052107,0.16382 c -0.912109,-0.55887 -0.925048,-1.27884 -0.03959,-2.20305 0.524055,-0.547 0.627357,-0.82651 0.433489,-1.17293 -0.172236,-0.30777 -0.314176,-0.35829 -0.439042,-0.15625 -0.28045,0.45378 -1.080899,0.35766 -1.777625,-0.21345 -0.620087,-0.50829 -0.62078,-0.51498 -0.09546,-0.92101 0.354935,-0.27434 0.433469,-0.476 0.238519,-0.61247 -0.159855,-0.11191 -1.080146,-0.72188 -2.045091,-1.35549 -1.544276,-1.01401 -1.721323,-1.2139 -1.477961,-1.66863 0.268909,-0.50246 0.310432,-0.49706 1.515924,0.19708 2.28131,1.31363 4.672405,2.97116 5.376368,3.72696 0.637591,0.68454 0.681169,0.86896 0.508587,2.15232 -0.129227,0.96096 -0.390873,1.60376 -0.829635,2.03818 -0.61898,0.61287 -0.665739,0.61932 -1.368483,0.18874 z m -2.036847,-7.58282 c -0.257279,-0.31 -0.167224,-0.45718 0.486631,-0.7953 0.754675,-0.39026 0.818851,-0.38404 1.080419,0.10471 0.223722,0.41802 0.177379,0.5735 -0.23705,0.7953 -0.688937,0.36871 -0.954449,0.3478 -1.33,-0.10471 z"
       style="display:inline;fill:#000000;stroke-width:0.26458335" />
  </g>
  <g
     transform="translate(-2.7526402,91.99938)"
     style="display:inline"
     id="layer22">
    <path
       transform="translate(0,-284.82914)"
       id="path4542"
       d="m 95.11074,244.86793 c -1.22618,-1.33026 -1.2619,-1.65002 -0.45548,-4.07842 0.21746,-0.65484 0.53544,-1.71119 0.70662,-2.34744 0.43834,-1.62915 1.30131,-2.41506 2.65189,-2.41506 1.35057,0 2.21354,0.78591 2.65188,2.41506 0.17119,0.63625 0.48917,1.6926 0.70663,2.34744 0.81974,2.46853 0.78244,2.75897 -0.53319,4.15142 -0.65899,0.69746 -1.26334,1.20293 -1.34301,1.12325 -0.0797,-0.0797 0.10785,-0.92214 0.41673,-1.87216 0.36118,-1.11092 0.4964,-1.98704 0.3789,-2.45516 -0.24786,-0.98756 -1.40418,-2.00568 -2.27794,-2.00568 -0.87058,0 -2.02982,1.01704 -2.27565,1.9965 -0.15299,0.60959 0.21049,2.26597 0.88278,4.02277 0.26521,0.69302 -0.43512,0.28376 -1.51016,-0.88252 z m 2.11601,-1.16127 c -0.28734,-0.28734 -0.60303,-0.84353 -0.70152,-1.23597 -0.14389,-0.57328 -0.0383,-0.83464 0.53719,-1.32965 0.88813,-0.76394 1.01456,-0.76394 1.9027,0 0.57548,0.49501 0.68107,0.75637 0.53719,1.32965 -0.18871,0.75189 -1.04076,1.75841 -1.48854,1.75841 -0.14552,0 -0.49968,-0.2351 -0.78702,-0.52244 z"
       style="display:inline;fill:#000000;stroke-width:0.26458335" />
  </g>
  <g
     transform="translate(-2.7526402,91.99938)"
     id="layer23">
    <path
       transform="translate(0,-284.82914)"
       id="path3826"
       d="m 48.208069,200.75828 c -0.961988,-0.53083 -1.263423,-1.16426 -1.263423,-2.65491 0,-1.76694 0.481671,-3.15043 1.492923,-4.28811 l 0.875992,-0.9855 -0.290397,0.87739 c -0.159719,0.48256 -0.232573,1.47918 -0.161898,2.21471 0.102319,1.06485 0.29707,1.49487 0.955836,2.11054 0.9271,0.86645 1.307182,1.94279 0.910135,2.57737 -0.35322,0.56453 -1.628942,0.63974 -2.519168,0.14851 z m 5.139494,0.0883 c -0.659764,-0.65976 -0.25232,-1.95461 0.93694,-2.97757 0.789678,-0.67925 1.105528,-2.77007 0.626184,-4.14512 l -0.300006,-0.8606 0.662559,0.62244 c 1.076703,1.01151 1.725574,2.64338 1.725574,4.3397 0,0.83674 -0.122592,1.75042 -0.272427,2.03039 -0.563902,1.05366 -2.69193,1.67765 -3.378824,0.99076 z"
       style="display:inline;fill:#000000;stroke-width:0.26458335" />
  </g>
</svg>
