<?xml version="1.0" encoding="UTF-8" standalone="no"?>
<!-- Created with Inkscape (http://www.inkscape.org/) -->

<svg
   xmlns:dc="http://purl.org/dc/elements/1.1/"
   xmlns:cc="http://creativecommons.org/ns#"
   xmlns:rdf="http://www.w3.org/1999/02/22-rdf-syntax-ns#"
   xmlns:svg="http://www.w3.org/2000/svg"
   xmlns="http://www.w3.org/2000/svg"
   xmlns:sodipodi="http://sodipodi.sourceforge.net/DTD/sodipodi-0.dtd"
   xmlns:inkscape="http://www.inkscape.org/namespaces/inkscape"
   width="46"
   height="46"
   viewBox="0 0 12.170833 12.170834"
   version="1.1"
   id="svg8"
   inkscape:version="0.92.4 (5da689c313, 2019-01-14)"
   sodipodi:docname="knight.svg">
  <defs
     id="defs2">
    <pattern
       y="0"
       x="0"
       height="6"
       width="6"
       patternUnits="userSpaceOnUse"
       id="EMFhbasepattern" />
  </defs>
  <sodipodi:namedview
     id="base"
     pagecolor="#ffffff"
     bordercolor="#666666"
     borderopacity="1.0"
     inkscape:pageopacity="0.0"
     inkscape:pageshadow="2"
     inkscape:zoom="1.979899"
     inkscape:cx="33.802051"
     inkscape:cy="37.026135"
     inkscape:document-units="mm"
     inkscape:current-layer="layer1"
     showgrid="false"
     units="px"
     inkscape:window-width="624"
     inkscape:window-height="802"
     inkscape:window-x="-7"
     inkscape:window-y="0"
     inkscape:window-maximized="0" />
  <metadata
     id="metadata5">
    <rdf:RDF>
      <cc:Work
         rdf:about="">
        <dc:format>image/svg+xml</dc:format>
        <dc:type
           rdf:resource="http://purl.org/dc/dcmitype/StillImage" />
        <dc:title></dc:title>
      </cc:Work>
    </rdf:RDF>
  </metadata>
  <g
     inkscape:label="Camada 1"
     inkscape:groupmode="layer"
     id="layer1"
     transform="translate(0,-284.82915)">
    <path
       style="display:inline;fill:#000000;stroke-width:0.26458338"
       d="m 4.4304665,295.17284 c -0.76398,-0.52095 -1.38906,-1.10878 -1.38906,-1.30629 0,-0.45731 -0.006,-0.45792 1.57771,0.16622 1.32944,0.52402 1.3359699,0.52402 2.6654199,0 1.5835601,-0.62419 1.5777001,-0.62357 1.5777001,-0.16589 0,0.28367 -2.68893,2.33693 -2.97249,2.26979 -0.0386,-0.009 -0.69529,-0.44287 -1.45928,-0.96383 z m -0.29915,-2.07778 c -1.4188,-0.6443 -1.42308,-0.64987 -1.25969,-1.6384 0.0902,-0.54555 0.16527,-1.19171 0.16687,-1.43592 0.002,-0.29473 0.49217,-0.62707 1.45812,-0.98847 l 1.45521,-0.54447 1.4552102,0.54447 c 0.9659397,0.3614 1.4561798,0.69374 1.4581198,0.98847 0.00201,0.24421 0.0767,0.89018 0.1667901,1.4355 l 0.1638898,0.99149 -1.4972599,0.66216 c -1.80086,0.79642 -1.78065,0.7965 -3.56726,-0.0148 z m 1.54068,-2.82875 c 0.01,-0.29171 -0.18054,-0.46302 -0.51392,-0.46302 -0.45742,0 -0.52917,0.17639 -0.52917,1.30087 0,2.30594 0.96508,1.53075 1.04309,-0.83785 z m 1.60274,0.83159 c 0,-1.14472 -0.0653,-1.29461 -0.56378,-1.29461 -0.50425,0 -0.5464699,0.10477 -0.3997899,0.99219 0.0902,0.5457 0.1653098,1.19681 0.16691,1.44691 0.00201,0.29496 0.1423498,0.40121 0.3997899,0.30242 0.2779501,-0.10666 0.39687,-0.54022 0.39687,-1.44691 z m -3.43958,-0.10398 c 0,-0.50932 -0.11906,-0.92604 -0.26458,-0.92604 -0.14552,0 -0.26459,0.41672 -0.26459,0.92604 0,0.50932 0.11907,0.92604 0.26459,0.92604 0.14552,0 0.26458,-0.41672 0.26458,-0.92604 z m 4.7625001,0 c 0,-0.50932 -0.1190601,-0.92604 -0.2645801,-0.92604 -0.1455201,0 -0.26459,0.41672 -0.26459,0.92604 0,0.50932 0.1190699,0.92604 0.26459,0.92604 0.14552,0 0.2645801,-0.41672 0.2645801,-0.92604 z m -5.2916701,-2.7232 c 0,-0.36565 1.00496,-1.32524 1.57855,-1.50729 0.29597,-0.0939 0.53812,-0.34137 0.53812,-0.54984 0,-0.20848 0.2381299,-0.37905 0.52917,-0.37905 0.29104,0 0.52916,0.16415 0.52916,0.36478 0,0.20063 0.33073,0.50176 0.73494,0.6692 0.69029,0.28592 1.5472601,1.26994 1.3113901,1.5058 -0.0589,0.0589 -0.6751902,-0.064 -1.36965,-0.273 -0.7524901,-0.22647 -1.4917002,-0.29576 -1.8295601,-0.1715 -1.09296,0.40196 -2.02212,0.5586 -2.02212,0.3409 z"
       id="path4809"
       inkscape:connector-curvature="0" />
  </g>
</svg>
