<?xml version="1.0" encoding="UTF-8" standalone="no"?>
<!-- Created with Inkscape (http://www.inkscape.org/) -->

<svg
   xmlns:dc="http://purl.org/dc/elements/1.1/"
   xmlns:cc="http://creativecommons.org/ns#"
   xmlns:rdf="http://www.w3.org/1999/02/22-rdf-syntax-ns#"
   xmlns:svg="http://www.w3.org/2000/svg"
   xmlns="http://www.w3.org/2000/svg"
   xmlns:sodipodi="http://sodipodi.sourceforge.net/DTD/sodipodi-0.dtd"
   xmlns:inkscape="http://www.inkscape.org/namespaces/inkscape"
   width="46"
   height="46"
   viewBox="0 0 12.170833 12.170834"
   version="1.1"
   id="svg8"
   inkscape:version="0.92.4 (5da689c313, 2019-01-14)"
   sodipodi:docname="phantom.svg">
  <defs
     id="defs2" />
  <sodipodi:namedview
     id="base"
     pagecolor="#ffffff"
     bordercolor="#666666"
     borderopacity="1.0"
     inkscape:pageopacity="0.0"
     inkscape:pageshadow="2"
     inkscape:zoom="1.979899"
     inkscape:cx="33.802051"
     inkscape:cy="37.026135"
     inkscape:document-units="mm"
     inkscape:current-layer="layer1"
     showgrid="false"
     units="px"
     inkscape:window-width="624"
     inkscape:window-height="802"
     inkscape:window-x="-7"
     inkscape:window-y="0"
     inkscape:window-maximized="0" />
  <metadata
     id="metadata5">
    <rdf:RDF>
      <cc:Work
         rdf:about="">
        <dc:format>image/svg+xml</dc:format>
        <dc:type
           rdf:resource="http://purl.org/dc/dcmitype/StillImage" />
        <dc:title></dc:title>
      </cc:Work>
    </rdf:RDF>
  </metadata>
  <g
     inkscape:label="Camada 1"
     inkscape:groupmode="layer"
     id="layer1"
     transform="translate(0,-284.82915)">
    <path
       style="display:inline;fill:#000000;stroke-width:0.26458338"
       d="m 6.6098115,295.71255 c 0,-0.14552 0.1601399,-0.26458 0.355867,-0.26458 0.5393359,0 1.290761,-0.95593 1.180421,-1.50167 -0.101656,-0.5028 -0.1511821,-0.50628 -2.6221891,-0.18454 -1.576415,0.20526 -2.25625,-0.17616 -2.648702,-1.48604 -0.419243,-1.39931 0.254245,-4.2364 1.319029,-5.55645 1.2126179,-1.50333 3.3263191,-1.3718 3.9975742,0.24875 0.484427,1.16951 -0.5432361,3.18828 -1.6230081,3.18828 -0.9672341,0 -0.4795851,0.73309 0.6822559,1.02564 2.1443973,0.53997 3.0099996,2.7555 1.6197371,4.14576 -0.6511171,0.65112 -2.260985,0.92514 -2.260985,0.38485 z m 0.748593,-7.23696 c 0.06732,-0.34954 -0.04126,-0.45811 -0.390798,-0.3908 -0.266206,0.0513 -0.5259552,0.31102 -0.5772222,0.57722 -0.06731,0.34954 0.04126,0.45811 0.3907981,0.3908 0.266206,-0.0513 0.5259559,-0.31102 0.5772221,-0.57722 z M 5.5056883,287.1305 c 0.06097,-0.51876 -0.01714,-0.70197 -0.2645829,-0.62065 -0.193098,0.0635 -0.390012,0.4466 -0.437588,0.85142 -0.06097,0.51876 0.01714,0.70197 0.2645831,0.62065 0.1930969,-0.0635 0.390012,-0.4466 0.4375878,-0.85142 z"
       id="path4779"
       inkscape:connector-curvature="0" />
  </g>
</svg>
