<?xml version="1.0" encoding="UTF-8" standalone="no"?>
<!-- Created with Inkscape (http://www.inkscape.org/) -->

<svg
   xmlns:dc="http://purl.org/dc/elements/1.1/"
   xmlns:cc="http://creativecommons.org/ns#"
   xmlns:rdf="http://www.w3.org/1999/02/22-rdf-syntax-ns#"
   xmlns:svg="http://www.w3.org/2000/svg"
   xmlns="http://www.w3.org/2000/svg"
   xmlns:sodipodi="http://sodipodi.sourceforge.net/DTD/sodipodi-0.dtd"
   xmlns:inkscape="http://www.inkscape.org/namespaces/inkscape"
   width="46"
   height="46"
   viewBox="0 0 12.170833 12.170834"
   version="1.1"
   id="svg8"
   inkscape:version="0.92.4 (5da689c313, 2019-01-14)"
   sodipodi:docname="pirate.svg">
  <defs
     id="defs2">
    <pattern
       y="0"
       x="0"
       height="6"
       width="6"
       patternUnits="userSpaceOnUse"
       id="EMFhbasepattern" />
  </defs>
  <sodipodi:namedview
     id="base"
     pagecolor="#ffffff"
     bordercolor="#666666"
     borderopacity="1.0"
     inkscape:pageopacity="0.0"
     inkscape:pageshadow="2"
     inkscape:zoom="1.979899"
     inkscape:cx="33.802051"
     inkscape:cy="37.026135"
     inkscape:document-units="mm"
     inkscape:current-layer="layer1"
     showgrid="false"
     units="px"
     inkscape:window-width="624"
     inkscape:window-height="802"
     inkscape:window-x="-7"
     inkscape:window-y="0"
     inkscape:window-maximized="0" />
  <metadata
     id="metadata5">
    <rdf:RDF>
      <cc:Work
         rdf:about="">
        <dc:format>image/svg+xml</dc:format>
        <dc:type
           rdf:resource="http://purl.org/dc/dcmitype/StillImage" />
        <dc:title></dc:title>
      </cc:Work>
    </rdf:RDF>
  </metadata>
  <g
     inkscape:label="Camada 1"
     inkscape:groupmode="layer"
     id="layer1"
     transform="translate(0,-284.82915)">
    <path
       style="display:inline;fill:#000000;stroke-width:0.26458338"
       d="m 3.857807,295.33537 c -0.44926,-0.11664 -0.95387,-0.29676 -1.12134,-0.40027 -0.37935,-0.23445 -1.73822999,-2.52574 -1.58738,-2.67658 0.0608,-0.0608 0.7599,0.075 1.5535,0.30176 2.1960501,0.6276 2.89811,0.72254 2.89811,0.39193 0,-0.16204 -0.22456,-0.29461 -0.49902,-0.29461 -0.3140099,0 -0.66871,-0.3576 -0.9567299,-0.96455 -0.7975001,-1.68061 -0.1470102,-4.06254 1.1094498,-4.06254 0.19046,0 0.3463001,-0.17859 0.3463001,-0.39687 0,-0.45274 0.4372901,-0.54022 0.57877,-0.11579 0.0655,0.19651 0.3109899,0.19848 0.8158001,0.007 0.84958,-0.32301 0.83683,-0.36227 0.2997798,0.92306 -0.4685898,1.12151 -0.35379,2.57138 0.3043902,3.84416 l 0.3961,0.76598 H 7.062697 c -0.5130599,0 -0.9328299,0.11906 -0.9328299,0.26458 0,0.14552 0.3689499,0.26458 0.8198898,0.26458 0.565,0 1.0444501,-0.24039 1.54222,-0.77326 0.7591602,-0.81268 2.6649701,-1.40663 2.6649701,-0.83054 0,0.5059 -0.78676,1.86839 -1.078889,1.86839 -0.1493513,0 -0.3927413,0.34764 -0.540861,0.77253 -0.1481199,0.4249 -0.45715,0.84462 -0.68673,0.93272 -0.72364,0.27769 -4.14044,0.40003 -4.99266,0.17877 z"
       id="path4811"
       inkscape:connector-curvature="0" />
  </g>
</svg>
