<?xml version="1.0" encoding="UTF-8" standalone="no"?>
<!-- Created with Inkscape (http://www.inkscape.org/) -->

<svg
   xmlns:dc="http://purl.org/dc/elements/1.1/"
   xmlns:cc="http://creativecommons.org/ns#"
   xmlns:rdf="http://www.w3.org/1999/02/22-rdf-syntax-ns#"
   xmlns:svg="http://www.w3.org/2000/svg"
   xmlns="http://www.w3.org/2000/svg"
   xmlns:sodipodi="http://sodipodi.sourceforge.net/DTD/sodipodi-0.dtd"
   xmlns:inkscape="http://www.inkscape.org/namespaces/inkscape"
   width="46"
   height="46"
   viewBox="0 0 12.170833 12.170834"
   version="1.1"
   id="svg8"
   inkscape:version="0.92.4 (5da689c313, 2019-01-14)"
   sodipodi:docname="ranger.svg">
  <defs
     id="defs2" />
  <sodipodi:namedview
     id="base"
     pagecolor="#ffffff"
     bordercolor="#666666"
     borderopacity="1.0"
     inkscape:pageopacity="0.0"
     inkscape:pageshadow="2"
     inkscape:zoom="1.979899"
     inkscape:cx="33.802051"
     inkscape:cy="37.026135"
     inkscape:document-units="mm"
     inkscape:current-layer="layer1"
     showgrid="false"
     units="px"
     inkscape:window-width="624"
     inkscape:window-height="802"
     inkscape:window-x="-7"
     inkscape:window-y="0"
     inkscape:window-maximized="0" />
  <metadata
     id="metadata5">
    <rdf:RDF>
      <cc:Work
         rdf:about="">
        <dc:format>image/svg+xml</dc:format>
        <dc:type
           rdf:resource="http://purl.org/dc/dcmitype/StillImage" />
        <dc:title></dc:title>
      </cc:Work>
    </rdf:RDF>
  </metadata>
  <g
     inkscape:label="Camada 1"
     inkscape:groupmode="layer"
     id="layer1"
     transform="translate(0,-284.82915)">
    <path
       style="display:inline;fill:#000000;stroke-width:0.26458338"
       d="m 6.0083074,295.07453 c -0.0061,-0.15409 0.1637937,-0.51128 0.3774469,-0.79375 0.677114,-0.89523 0.4760529,-1.1294 -1.1160652,-1.29986 -0.836744,-0.0896 -2.1009949,-0.23032 -2.8094449,-0.31275 l -1.288091,-0.14988 2.199465,-2.21095 2.199465,-2.21095 -0.911374,-0.39539 c -0.906251,-0.39317 -0.907225,-0.39545 -0.1732291,-0.40575 0.844595,-0.0119 2.605387,0.81964 3.383525,1.59778 0.5048721,0.50487 1.2111945,0.47413 0.8941152,-0.0389 -0.08426,-0.13633 0.3203013,-0.2463 0.906111,-0.2463 0.5820827,0 1.1202577,0.1002 1.1959437,0.22266 0.07569,0.12247 -0.274474,0.62207 -0.778135,1.11024 -0.5036597,0.48817 -0.9157454,0.74516 -0.9157454,0.57109 0,-0.80177 -0.4386133,-0.1737 -0.8453072,1.21042 -0.4028051,1.37089 -2.289348,4.09842 -2.31868,3.35231 z m 1.3119028,-3.42401 c 0,-0.50932 -0.04089,-0.92604 -0.09087,-0.92604 -0.1372449,0 -3.1588799,1.03832 -3.6132949,1.24163 -0.438252,0.19608 1.0473721,0.50992 2.7119791,0.57291 0.964691,0.0365 0.992187,0.0119 0.9921858,-0.8885 z m -2.0932841,-1.02667 c 0.9214162,-0.34639 1.7121053,-0.74021 1.7570852,-0.87515 0.04498,-0.13494 -0.194198,-0.50462 -0.531509,-0.8215 l -0.6132909,-0.57616 -1.4332752,1.4513 c -0.788301,0.79822 -1.303008,1.45131 -1.143794,1.45131 0.159214,0 1.0433669,-0.28341 1.9647839,-0.6298 z"
       id="path4789"
       inkscape:connector-curvature="0" />
  </g>
</svg>
