<?xml version="1.0" encoding="UTF-8" standalone="no"?>
<!-- Created with Inkscape (http://www.inkscape.org/) -->

<svg
   xmlns:dc="http://purl.org/dc/elements/1.1/"
   xmlns:cc="http://creativecommons.org/ns#"
   xmlns:rdf="http://www.w3.org/1999/02/22-rdf-syntax-ns#"
   xmlns:svg="http://www.w3.org/2000/svg"
   xmlns="http://www.w3.org/2000/svg"
   xmlns:sodipodi="http://sodipodi.sourceforge.net/DTD/sodipodi-0.dtd"
   xmlns:inkscape="http://www.inkscape.org/namespaces/inkscape"
   width="46"
   height="46"
   viewBox="0 0 12.170833 12.170834"
   version="1.1"
   id="svg8"
   inkscape:version="0.92.4 (5da689c313, 2019-01-14)"
   sodipodi:docname="robot.svg">
  <defs
     id="defs2" />
  <sodipodi:namedview
     id="base"
     pagecolor="#ffffff"
     bordercolor="#666666"
     borderopacity="1.0"
     inkscape:pageopacity="0.0"
     inkscape:pageshadow="2"
     inkscape:zoom="1.979899"
     inkscape:cx="33.802051"
     inkscape:cy="37.026135"
     inkscape:document-units="mm"
     inkscape:current-layer="layer1"
     showgrid="false"
     units="px"
     inkscape:window-width="624"
     inkscape:window-height="802"
     inkscape:window-x="-7"
     inkscape:window-y="0"
     inkscape:window-maximized="0" />
  <metadata
     id="metadata5">
    <rdf:RDF>
      <cc:Work
         rdf:about="">
        <dc:format>image/svg+xml</dc:format>
        <dc:type
           rdf:resource="http://purl.org/dc/dcmitype/StillImage" />
        <dc:title></dc:title>
      </cc:Work>
    </rdf:RDF>
  </metadata>
  <g
     inkscape:label="Camada 1"
     inkscape:groupmode="layer"
     id="layer1"
     transform="translate(0,-284.82915)">
    <path
       style="display:inline;fill:#000000;stroke-width:0.26458338"
       d="m 2.0448194,292.87242 c 0,-2.05116 0.72312,-4.6198 1.4426399,-5.12446 0.1524302,-0.10691 1.2891802,-0.19439 2.5261102,-0.19439 1.2369199,0 2.37367,0.0875 2.5260999,0.19439 0.71952,0.50466 1.4426499,3.0733 1.4426499,5.12446 v 2.08138 H 6.0135695 2.0448194 Z m 6.3500001,-0.0353 c 0,-0.48997 -0.17639,-0.52917 -2.38125,-0.52917 -2.20486,0 -2.38125,0.0392 -2.38125,0.52917 0,0.48997 0.17639,0.52916 2.38125,0.52916 2.20486,0 2.38125,-0.0392 2.38125,-0.52916 z m -3.4395899,-3.04271 c 0,-0.22049 -0.2351802,-0.39688 -0.5291601,-0.39688 -0.2939801,0 -0.5291701,0.17639 -0.5291701,0.39688 0,0.22048 0.23519,0.39687 0.5291701,0.39687 0.2939799,0 0.5291601,-0.17639 0.5291601,-0.39687 z m 3.175,0 c 0,-0.22049 -0.2351802,-0.39688 -0.5291601,-0.39688 -0.2939801,0 -0.5291701,0.17639 -0.5291701,0.39688 0,0.22048 0.23519,0.39687 0.5291701,0.39687 0.2939799,0 0.5291601,-0.17639 0.5291601,-0.39687 z m -7.40833027,2.24896 c 0,-0.88195 0.0882,-1.05834 0.52917007,-1.05834 0.44097,0 0.52916,0.17639 0.52916,1.05834 0,0.88194 -0.0882,1.05833 -0.52916,1.05833 -0.44098007,0 -0.52917007,-0.17639 -0.52917007,-1.05833 z m 9.52499967,0 c 0,-0.88195 0.0882,-1.05834 0.52917,-1.05834 0.44097,0 0.52916,0.17639 0.52916,1.05834 0,0.88194 -0.0882,1.05833 -0.52916,1.05833 -0.44098,0 -0.52917,-0.17639 -0.52917,-1.05833 z"
       id="path4834"
       inkscape:connector-curvature="0" />
  </g>
</svg>
