<?xml version="1.0" encoding="UTF-8" standalone="no"?>
<!-- Created with Inkscape (http://www.inkscape.org/) -->

<svg
   xmlns:dc="http://purl.org/dc/elements/1.1/"
   xmlns:cc="http://creativecommons.org/ns#"
   xmlns:rdf="http://www.w3.org/1999/02/22-rdf-syntax-ns#"
   xmlns:svg="http://www.w3.org/2000/svg"
   xmlns="http://www.w3.org/2000/svg"
   xmlns:sodipodi="http://sodipodi.sourceforge.net/DTD/sodipodi-0.dtd"
   xmlns:inkscape="http://www.inkscape.org/namespaces/inkscape"
   width="46"
   height="46"
   viewBox="0 0 12.170833 12.170834"
   version="1.1"
   id="svg8"
   inkscape:version="0.92.4 (5da689c313, 2019-01-14)"
   sodipodi:docname="shapeshifter.svg">
  <defs
     id="defs2" />
  <sodipodi:namedview
     id="base"
     pagecolor="#ffffff"
     bordercolor="#666666"
     borderopacity="1.0"
     inkscape:pageopacity="0.0"
     inkscape:pageshadow="2"
     inkscape:zoom="1.979899"
     inkscape:cx="33.802051"
     inkscape:cy="37.026135"
     inkscape:document-units="mm"
     inkscape:current-layer="layer1"
     showgrid="false"
     units="px"
     inkscape:window-width="624"
     inkscape:window-height="802"
     inkscape:window-x="-7"
     inkscape:window-y="0"
     inkscape:window-maximized="0" />
  <metadata
     id="metadata5">
    <rdf:RDF>
      <cc:Work
         rdf:about="">
        <dc:format>image/svg+xml</dc:format>
        <dc:type
           rdf:resource="http://purl.org/dc/dcmitype/StillImage" />
        <dc:title></dc:title>
      </cc:Work>
    </rdf:RDF>
  </metadata>
  <g
     inkscape:label="Camada 1"
     inkscape:groupmode="layer"
     id="layer1"
     transform="translate(0,-284.82915)">
    <path
       style="display:inline;fill:#000000;stroke-width:0.26458338"
       d="m 0.99673754,295.33171 c -0.46534801,-0.75295 1.33346396,-3.59497 2.52723796,-3.99289 0.1863741,-0.0621 0.133199,-0.39991 -0.153395,-0.9744 -0.820996,-1.64573 0.2131369,-4.00821 1.754519,-4.00821 0.489898,0 0.5144122,0.22066 0.5144122,4.63021 v 4.63021 H 3.4061685 c -1.309743,0 -2.306165,-0.11783 -2.40943096,-0.28492 z M 10.5012,295.15361 C 9.8703742,293.19052 9.2681401,292.4343 7.932623,291.92827 l -0.7495983,-0.28402 0.6834523,-0.81224 c 0.90427,-1.07466 0.918081,-2.41314 0.03402,-3.2972 -0.3571874,-0.35719 -0.7739065,-0.64943 -0.9260416,-0.64943 -0.152136,0 -0.27661,-0.11907 -0.27661,-0.26459 0,-0.47414 1.0124951,-0.27877 1.7139706,0.33073 0.9007701,0.78267 1.1383171,2.24354 0.5549601,3.4129 -0.2865931,0.57449 -0.3397691,0.91227 -0.153394,0.9744 1.6052139,0.53507 3.4371879,4.27781 2.0938779,4.27781 -0.141499,0 -0.324227,-0.20836 -0.40606,-0.46302 z"
       id="path4801"
       inkscape:connector-curvature="0" />
  </g>
</svg>
