<?xml version="1.0" encoding="UTF-8" standalone="no"?>
<!-- Created with Inkscape (http://www.inkscape.org/) -->

<svg
   xmlns:dc="http://purl.org/dc/elements/1.1/"
   xmlns:cc="http://creativecommons.org/ns#"
   xmlns:rdf="http://www.w3.org/1999/02/22-rdf-syntax-ns#"
   xmlns:svg="http://www.w3.org/2000/svg"
   xmlns="http://www.w3.org/2000/svg"
   xmlns:sodipodi="http://sodipodi.sourceforge.net/DTD/sodipodi-0.dtd"
   xmlns:inkscape="http://www.inkscape.org/namespaces/inkscape"
   width="46"
   height="46"
   viewBox="0 0 12.170833 12.170834"
   version="1.1"
   id="svg8"
   inkscape:version="0.92.4 (5da689c313, 2019-01-14)"
   sodipodi:docname="sorcerer.svg">
  <defs
     id="defs2">
    <pattern
       y="0"
       x="0"
       height="6"
       width="6"
       patternUnits="userSpaceOnUse"
       id="EMFhbasepattern" />
  </defs>
  <sodipodi:namedview
     id="base"
     pagecolor="#ffffff"
     bordercolor="#666666"
     borderopacity="1.0"
     inkscape:pageopacity="0.0"
     inkscape:pageshadow="2"
     inkscape:zoom="1.979899"
     inkscape:cx="33.802051"
     inkscape:cy="37.026135"
     inkscape:document-units="mm"
     inkscape:current-layer="layer1"
     showgrid="false"
     units="px"
     inkscape:window-width="624"
     inkscape:window-height="802"
     inkscape:window-x="-7"
     inkscape:window-y="0"
     inkscape:window-maximized="0" />
  <metadata
     id="metadata5">
    <rdf:RDF>
      <cc:Work
         rdf:about="">
        <dc:format>image/svg+xml</dc:format>
        <dc:type
           rdf:resource="http://purl.org/dc/dcmitype/StillImage" />
        <dc:title></dc:title>
      </cc:Work>
    </rdf:RDF>
  </metadata>
  <g
     inkscape:label="Camada 1"
     inkscape:groupmode="layer"
     id="layer1"
     transform="translate(0,-284.82915)">
    <path
       style="display:inline;fill:#000000;stroke-width:0.26458338"
       d="m 2.3068505,294.72122 c -0.70355,-0.19334 -1.33286005,-0.4052 -1.39847005,-0.47082 -0.0656,-0.0656 -0.0374,-1.56755 0.0626,-3.33764 0.23222005,-4.10887 0.73066005,-4.23689 0.83794005,-0.21522 0.0804,3.01239 0.0506,2.94548 1.8145999,4.07622 0.62645,0.40156 0.28643,0.38799 -1.3166499,-0.0525 z m 6.2687701,0.0734 c 1.8330604,-1.25271 1.7572704,-1.0783 1.7572704,-4.04377 0,-1.65756 0.11168,-2.81233 0.28219,-2.91771 0.1552,-0.0959 0.318089,-0.13271 0.361969,-0.0818 0.0439,0.051 0.16182,1.54473 0.262081,3.31952 l 0.182299,3.22688 -1.139579,0.2946 c -2.2553504,0.58303 -2.2651505,0.58419 -1.7062304,0.20224 z m -4.5636101,-0.79892 -1.42608,-0.80093 0.16931,-2.38529 c 0.0931,-1.31191 0.16932,-2.7262 0.16932,-3.14286 v -0.75756 l 1.3229101,0.67038 1.3229199,0.67037 v 3.30283 c 0,1.81656 -0.0298,3.2896 -0.0662,3.27341 -0.0364,-0.0162 -0.70788,-0.38984 -1.4922302,-0.83035 z m 2.6167101,-2.46851 v -3.27738 l 1.2843701,-0.65084 1.28437,-0.65084 0.17084,2.40682 c 0.28611,4.03073 0.35732,3.77228 -1.2843701,4.66146 l -1.45521,0.78817 z"
       id="path4815"
       inkscape:connector-curvature="0" />
  </g>
</svg>
