<?xml version="1.0" encoding="UTF-8" standalone="no"?>
<!-- Created with Inkscape (http://www.inkscape.org/) -->

<svg
   xmlns:dc="http://purl.org/dc/elements/1.1/"
   xmlns:cc="http://creativecommons.org/ns#"
   xmlns:rdf="http://www.w3.org/1999/02/22-rdf-syntax-ns#"
   xmlns:svg="http://www.w3.org/2000/svg"
   xmlns="http://www.w3.org/2000/svg"
   xmlns:sodipodi="http://sodipodi.sourceforge.net/DTD/sodipodi-0.dtd"
   xmlns:inkscape="http://www.inkscape.org/namespaces/inkscape"
   width="46"
   height="46"
   viewBox="0 0 12.170833 12.170834"
   version="1.1"
   id="svg8"
   inkscape:version="0.92.4 (5da689c313, 2019-01-14)"
   sodipodi:docname="wild.svg">
  <defs
     id="defs2">
    <pattern
       y="0"
       x="0"
       height="6"
       width="6"
       patternUnits="userSpaceOnUse"
       id="EMFhbasepattern" />
  </defs>
  <sodipodi:namedview
     id="base"
     pagecolor="#ffffff"
     bordercolor="#666666"
     borderopacity="1.0"
     inkscape:pageopacity="0.0"
     inkscape:pageshadow="2"
     inkscape:zoom="1.979899"
     inkscape:cx="33.802051"
     inkscape:cy="37.026135"
     inkscape:document-units="mm"
     inkscape:current-layer="layer1"
     showgrid="false"
     units="px"
     inkscape:window-width="624"
     inkscape:window-height="802"
     inkscape:window-x="-7"
     inkscape:window-y="0"
     inkscape:window-maximized="0" />
  <metadata
     id="metadata5">
    <rdf:RDF>
      <cc:Work
         rdf:about="">
        <dc:format>image/svg+xml</dc:format>
        <dc:type
           rdf:resource="http://purl.org/dc/dcmitype/StillImage" />
        <dc:title></dc:title>
      </cc:Work>
    </rdf:RDF>
  </metadata>
  <g
     inkscape:label="Camada 1"
     inkscape:groupmode="layer"
     id="layer1"
     transform="translate(0,-284.82915)">
    <path
       style="display:inline;fill:#000000;stroke-width:0.26458338"
       d="m 4.4180922,294.7815 c -0.8007622,-0.72517 -1.8752581,-1.4937 -2.3877711,-1.70784 -1.12776799,-0.47121 -1.35411499,-0.96332 -0.922432,-2.00549 0.339169,-0.81883 0.454719,-0.87548 1.630542,-0.79932 0.388559,0.0252 1.067255,-0.1408 1.5082151,-0.36883 1.004198,-0.5193 2.2517124,-0.53391 2.6688644,-0.0313 0.174974,0.21083 0.37461,0.87493 0.443639,1.47578 0.06903,0.60084 0.238103,1.38859 0.375721,1.75056 0.60438,1.58964 -0.0028,3.00492 -1.289169,3.00492 -0.3145955,0 -1.2264105,-0.59293 -2.0276094,-1.3185 z m 4.4791584,-1.70803 c -0.478803,-0.35605 -0.486469,-0.43575 -0.108267,-1.12572 0.339602,-0.61955 0.580041,-0.74254 1.4515844,-0.74254 1.211303,0 1.484311,0.51797 0.732196,1.38918 -0.648286,0.75094 -1.4584464,0.93794 -2.0755134,0.47908 z m -0.471191,-2.97069 c -0.287482,-0.28748 -0.201129,-1.28054 0.141111,-1.62278 0.174625,-0.17462 0.650875,-0.3175 1.058334,-0.3175 0.6007764,0 0.7408334,0.1173 0.7408334,0.62045 0,0.99102 -1.3504634,1.90964 -1.9402784,1.31983 z m -5.2916665,-1.05834 c -0.325914,-0.32591 -0.180247,-1.81702 0.235489,-2.41057 0.513624,-0.7333 1.069208,-0.75208 1.445554,-0.0489 0.6093521,1.13859 -0.8568219,3.28368 -1.681043,2.45945 z m 2.8421939,-1.01616 c -0.2082879,-0.82988 0.4985646,-1.98245 1.2158086,-1.98245 0.729958,0 0.971107,1.14351 0.418885,1.98631 -0.568003,0.86688 -1.4166555,0.86488 -1.6346936,-0.004 z"
       id="path4821"
       inkscape:connector-curvature="0" />
  </g>
</svg>
